<svg xmlns="http://www.w3.org/2000/svg" viewBox="0 0 1200 630">
  <defs>
    
  <radialGradient id="o-m" cx="38%" cy="34%" r="70%">
    <stop offset="0" stop-color="#f5f7fb"/><stop offset=".58" stop-color="#cfd8e6"/><stop offset="1" stop-color="#aeb9cc"/>
  </radialGradient>
  <radialGradient id="o-g" cx="50%" cy="50%" r="50%">
    <stop offset=".45" stop-color="#cdd8ea" stop-opacity=".16"/><stop offset="1" stop-color="#cdd8ea" stop-opacity="0"/>
  </radialGradient>
  <clipPath id="o-c"><rect x="-2000" y="-2000" width="4512" height="2318"/></clipPath>
    <linearGradient id="sky" x1="0" y1="0" x2="0" y2="1">
      <stop offset="0" stop-color="#0e1117"/><stop offset=".55" stop-color="#141821"/><stop offset="1" stop-color="#0c0e13"/>
    </linearGradient>
    <radialGradient id="glow" cx="860" cy="320" r="360" gradientUnits="userSpaceOnUse">
      <stop offset="0" stop-color="#cdd8ea" stop-opacity=".16"/><stop offset="1" stop-color="#cdd8ea" stop-opacity="0"/>
    </radialGradient>
    <linearGradient id="hz" x1="440" y1="0" x2="710" y2="0" gradientUnits="userSpaceOnUse">
      <stop offset="0" stop-color="#cdd8ea" stop-opacity="0"/><stop offset="1" stop-color="#cdd8ea" stop-opacity=".7"/>
    </linearGradient>
    <clipPath id="above"><rect x="0" y="0" width="1200" height="360"/></clipPath>
  </defs>
  <rect width="1200" height="630" fill="url(#sky)"/>
  <rect width="1200" height="630" fill="url(#glow)"/>
  <circle cx="860" cy="320" r="150" fill="url(#o-m)" clip-path="url(#above)"/>
  <rect x="440" y="355" width="780" height="10" fill="url(#hz)"/>
  <line x1="700" x2="1020" y1="404" y2="404" stroke="#cdd8ea" stroke-width="10" stroke-linecap="round" opacity="0.5"/><line x1="740" x2="980" y1="434" y2="434" stroke="#cdd8ea" stroke-width="10" stroke-linecap="round" opacity="0.34"/><line x1="785" x2="935" y1="464" y2="464" stroke="#cdd8ea" stroke-width="10" stroke-linecap="round" opacity="0.2"/><line x1="825" x2="895" y1="494" y2="494" stroke="#cdd8ea" stroke-width="10" stroke-linecap="round" opacity="0.12"/>
  <path d="M178.08 300L98.47 300Q97.9 300 97.9 298.86Q97.9 297.72 98.47 297.72L98.47 297.72Q104.17 297.72 107.12 296.77Q110.06 295.82 111.49 292.97Q112.91 290.12 113.86 284.61L113.86 284.61L129.44 196.64Q130.96 188.47 128.87 186Q126.78 183.53 118.61 183.53L118.61 183.53Q118.23 183.53 118.23 182.39Q118.23 181.25 118.61 181.25L118.61 181.25Q122.6 181.25 127.54 181.54Q132.48 181.82 137.99 181.82L137.99 181.82Q143.88 181.82 149.11 181.54Q154.33 181.25 158.32 181.25L158.32 181.25Q158.7 181.25 158.7 182.39Q158.7 183.53 158.32 183.53L158.32 183.53Q152.62 183.53 149.58 184.58Q146.54 185.62 145.21 188.47Q143.88 191.32 142.74 196.83L142.74 196.83L127.35 283.85Q126.02 291.64 127.83 294.02Q129.63 296.39 136.85 296.39L136.85 296.39L151.67 296.39Q163.64 296.39 171.62 289.46Q179.6 282.52 185.3 269.98L185.3 269.98Q185.3 269.98 185.3 269.98L185.3 269.98Q185.49 269.6 186.44 269.79L186.44 269.79Q187.39 269.98 187.39 270.36L187.39 270.36Q187.39 270.36 187.39 270.55L187.39 270.55Q185.87 275.87 184.07 283.38Q182.26 290.88 181.12 297.15L181.12 297.15Q180.55 300 178.08 300L178.08 300M215.51 302.47L215.51 302.47Q207.53 302.47 204.49 296.49Q201.45 290.5 204.11 277.39L204.11 277.39L210.95 243.57Q211.9 237.87 211.05 235.5Q210.19 233.12 207.91 233.12L207.91 233.12Q206.01 233.12 202.97 235.4Q199.93 237.68 196.32 241.29L196.32 241.29Q195.56 242.05 194.8 241.29Q194.04 240.53 194.8 239.77L194.8 239.77Q201.07 232.55 206.11 228.75Q211.14 224.95 216.27 224.95L216.27 224.95Q221.21 224.95 222.92 229.13Q224.63 233.31 222.54 243.57L222.54 243.57L216.46 273.78Q214.18 284.23 215.99 289.17Q217.79 294.11 222.92 294.11L222.92 294.11Q228.81 294.11 235.18 286.42Q241.54 278.72 247.24 264.09Q252.94 249.46 256.74 228.37L256.74 228.37Q257.31 225.14 264.34 225.14L264.34 225.14Q267.38 225.14 268.33 225.52Q269.28 225.9 269.28 226.47Q269.28 227.04 268.33 231.41Q267.38 235.78 266.43 240.72L266.43 240.72L258.64 283.09Q257.31 291.64 259.97 293.35L259.97 293.35Q260.73 293.73 261.68 293.73L261.68 293.73Q263.77 293.73 267 291.55Q270.23 289.36 274.22 285.37L274.22 285.37Q274.41 284.99 274.79 284.99L274.79 284.99Q275.17 284.99 275.55 285.37L275.55 285.37Q276.31 286.32 275.74 286.89L275.74 286.89Q269.09 294.49 263.77 298.1Q258.45 301.71 253.32 301.71Q248.19 301.71 246.77 297.53Q245.34 293.35 247.05 284.04L247.05 284.04L250.66 263.14Q249.9 265.42 249.14 267.32L249.14 267.32Q242.3 284.04 233.75 293.26Q225.2 302.47 215.51 302.47M297.21 301.71L297.21 301.71Q291.7 301.71 290.37 297.34Q289.04 292.97 290.75 283.09L290.75 283.09L309.18 184.1Q310.51 176.69 307.95 174.89Q305.38 173.08 297.02 177.26L297.02 177.26Q296.26 177.45 295.88 176.31L295.88 176.31Q295.5 175.55 295.69 175.17L295.69 175.17Q295.88 174.98 296.07 174.98L296.07 174.98L322.1 162.25Q323.05 161.87 323.81 162.63Q324.57 163.39 324.38 163.77L324.38 163.77L302.53 283.09Q301.39 288.79 302.34 291.17Q303.29 293.54 305.38 293.54Q307.47 293.54 310.42 291.26Q313.36 288.98 317.16 285.37L317.16 285.37Q317.92 284.61 318.68 285.37Q319.44 286.13 318.68 286.89L318.68 286.89Q312.6 293.92 307.47 297.82Q302.34 301.71 297.21 301.71M342.81 301.71L342.81 301.71Q337.3 301.71 335.97 297.34Q334.64 292.97 336.35 283.09L336.35 283.09L354.78 184.1Q356.11 176.69 353.55 174.89Q350.98 173.08 342.62 177.26L342.62 177.26Q341.86 177.45 341.48 176.31L341.48 176.31Q341.1 175.55 341.29 175.17L341.29 175.17Q341.48 174.98 341.67 174.98L341.67 174.98L367.7 162.25Q368.65 161.87 369.41 162.63Q370.17 163.39 369.98 163.77L369.98 163.77L348.13 283.09Q346.99 288.79 347.94 291.17Q348.89 293.54 350.98 293.54Q353.07 293.54 356.02 291.26Q358.96 288.98 362.76 285.37L362.76 285.37Q363.52 284.61 364.28 285.37Q365.04 286.13 364.28 286.89L364.28 286.89Q358.2 293.92 353.07 297.82Q347.94 301.71 342.81 301.71" fill="#e8ebf1"/><path d="M114.64 390.48L114.64 390.48Q111.76 390.48 109.42 389.46Q107.08 388.44 105.42 386.64Q103.76 384.84 102.86 382.5Q101.96 380.16 101.96 377.52L101.96 377.52Q101.96 374.28 103.22 371.84Q104.48 369.4 106.56 367.78Q108.64 366.16 111.12 365.36Q113.6 364.56 116.04 364.56L116.04 364.56Q119 364.56 121.34 365.62Q123.68 366.68 125.32 368.48Q126.96 370.28 127.82 372.56Q128.68 374.84 128.68 377.24L128.68 377.24Q128.68 380.04 127.56 382.44Q126.44 384.84 124.5 386.64Q122.56 388.44 120.02 389.46Q117.48 390.48 114.64 390.48M116.04 389.64L116.04 389.64Q118.76 389.64 120.92 388.34Q123.08 387.04 124.36 384.52Q125.64 382 125.64 378.36L125.64 378.36Q125.64 374.6 124.26 371.7Q122.88 368.8 120.34 367.14Q117.8 365.48 114.36 365.48L114.36 365.48Q109.92 365.48 107.46 368.34Q105 371.2 105 376.12L105 376.12Q105 378.96 105.78 381.42Q106.56 383.88 108.04 385.74Q109.52 387.6 111.56 388.62Q113.6 389.64 116.04 389.64M139.84 390.48L139.84 390.48Q137.12 390.48 135.4 389.3Q133.68 388.12 132.86 386.3Q132.04 384.48 132.04 382.6L132.04 382.6Q132.04 380.6 132.82 379.04Q133.6 377.48 134.88 376.4Q136.16 375.32 137.72 374.76Q139.28 374.2 140.76 374.2L140.76 374.2Q141.92 374.2 142.98 374.5Q144.04 374.8 144.74 375.36Q145.44 375.92 145.44 376.64L145.44 376.64Q145.44 377.16 145.08 377.54Q144.72 377.92 144.04 377.92L144.04 377.92Q143.4 377.92 142.98 377.52Q142.56 377.12 142.28 376.6L142.28 376.6Q141.84 375.88 141.24 375.44Q140.64 375 139.44 375L139.44 375Q137.16 375 135.92 376.78Q134.68 378.56 134.68 381.4L134.68 381.4Q134.68 383.44 135.38 385.2Q136.08 386.96 137.56 388.02Q139.04 389.08 141.4 389.08L141.4 389.08Q142.48 389.08 143.52 388.8Q144.56 388.52 145.48 387.76L145.48 387.76Q145.48 387.76 145.52 387.72L145.52 387.72Q145.6 387.72 145.72 387.84L145.72 387.84Q145.84 388 145.76 388.08L145.76 388.08Q144.36 389.32 142.96 389.9Q141.56 390.48 139.84 390.48M155.56 390.48L155.56 390.48Q153.16 390.48 151.52 389.38Q149.88 388.28 149.06 386.52Q148.24 384.76 148.24 382.8L148.24 382.8Q148.24 380.36 149.36 378.42Q150.48 376.48 152.42 375.34Q154.36 374.2 156.68 374.2L156.68 374.2Q158.96 374.2 160.14 375.4Q161.32 376.6 161.32 378.76L161.32 378.76Q161.32 379.28 161.22 379.54Q161.12 379.8 160.84 379.8L160.84 379.8L159.2 379.8L150.96 379.84Q150.88 380.52 150.88 381.28L150.88 381.28Q150.88 383.56 151.6 385.32Q152.32 387.08 153.72 388.08Q155.12 389.08 157.12 389.08L157.12 389.08Q158.48 389.08 159.36 388.68Q160.24 388.28 161.12 387.76L161.12 387.76Q161.12 387.76 161.16 387.72L161.16 387.72Q161.24 387.72 161.36 387.84L161.36 387.84Q161.48 388.04 161.4 388.16L161.4 388.16Q160 389.4 158.54 389.94Q157.08 390.48 155.56 390.48M151.04 379.32L158.64 379.16Q158.64 377.2 157.88 376.16L157.88 376.16Q157 375 155.36 375L155.36 375Q153.24 375 152.08 376.68L152.08 376.68Q151.32 377.76 151.04 379.32L151.04 379.32M179.6 388.28L175.48 390.24Q175.32 390.32 175.16 390.32L175.16 390.32Q174.64 390.32 174.16 389.44L174.16 389.44Q173.8 388.8 173.72 387.72L173.72 387.72L171.64 389.08Q170.68 389.72 169.9 390Q169.12 390.28 168.28 390.28L168.28 390.28Q166.76 390.28 165.96 389.46Q165.16 388.64 165.16 387.52L165.16 387.52Q165.16 386.72 165.58 386.06Q166 385.4 166.92 384.84Q167.84 384.28 169.28 383.76L169.28 383.76L173.68 382.12L173.68 379.4Q173.68 376.92 172.98 375.92Q172.28 374.92 171.16 374.92L171.16 374.92Q170.16 374.92 169.52 375.42Q168.88 375.92 168.58 376.6Q168.28 377.28 168.16 377.88L168.16 377.88Q168.04 378.44 167.76 378.98Q167.48 379.52 166.64 379.52L166.64 379.52Q165.96 379.52 165.64 379.14Q165.32 378.76 165.32 378.32L165.32 378.32Q165.32 377.56 166.06 376.84Q166.8 376.12 167.94 375.5Q169.08 374.88 170.34 374.52Q171.6 374.16 172.6 374.16L172.6 374.16Q174.24 374.16 175.08 375.22Q175.92 376.28 175.92 378.2L175.92 378.2L175.92 385.68Q175.92 387.08 176.28 387.72Q176.64 388.36 177.44 388.36L177.44 388.36Q178.16 388.36 179.44 387.84L179.44 387.84Q179.52 387.8 179.6 387.84L179.6 387.84Q179.68 387.88 179.72 387.96L179.72 387.96Q179.8 388.2 179.6 388.28L179.6 388.28M172 388.16L173.68 387.16Q173.68 387.04 173.68 386.96L173.68 386.96L173.68 382.68L169.96 384.12Q169.24 384.4 168.76 384.76Q168.28 385.12 168.06 385.56Q167.84 386 167.84 386.52L167.84 386.52Q167.84 387.44 168.44 388.12Q169.04 388.8 170.08 388.8L170.08 388.8Q170.48 388.8 170.92 388.68Q171.36 388.56 172 388.16L172 388.16M192.24 390L192.24 390Q192.12 390 192.12 389.76Q192.12 389.52 192.24 389.52L192.24 389.52Q193.8 389.52 194.26 388.98Q194.72 388.44 194.72 386.76L194.72 386.76L194.72 380.28Q194.72 377.88 193.84 376.78Q192.96 375.68 191.04 375.68L191.04 375.68Q189.6 375.68 188.08 376.6L188.08 376.6Q187.08 377.2 186.24 378.12L186.24 378.12L186.24 386.76Q186.24 388.44 186.7 388.98Q187.16 389.52 188.72 389.52L188.72 389.52Q188.84 389.52 188.84 389.76Q188.84 390 188.72 390L188.72 390Q188.04 390 187.1 389.96Q186.16 389.92 185.12 389.92Q184.08 389.92 183.12 389.96Q182.16 390 181.48 390L181.48 390Q181.36 390 181.36 389.76Q181.36 389.52 181.48 389.52L181.48 389.52Q183.04 389.52 183.5 388.98Q183.96 388.44 183.96 386.76L183.96 386.76L183.96 378.84Q183.96 377.52 183.66 376.9Q183.36 376.28 182.56 376.28L182.56 376.28Q182.16 376.28 181.62 376.44Q181.08 376.6 180.4 376.88L180.4 376.88Q180.24 376.92 180.14 376.72Q180.04 376.52 180.2 376.44L180.2 376.44L184.84 374.24Q184.96 374.2 185.08 374.2L185.08 374.2Q185.36 374.2 185.8 375.04Q186.24 375.88 186.24 377.48L186.24 377.48L186.24 377.48Q187.52 376 188.84 375.16L188.84 375.16Q190.56 374.04 192.36 374.04L192.36 374.04Q194.56 374.04 195.78 375.26Q197 376.48 197 378.92L197 378.92L197 386.76Q197 388.44 197.46 388.98Q197.92 389.52 199.48 389.52L199.48 389.52Q199.6 389.52 199.6 389.76Q199.6 390 199.48 390L199.48 390Q198.8 390 197.86 389.96Q196.92 389.92 195.88 389.92Q194.84 389.92 193.88 389.96Q192.92 390 192.24 390M204.44 387.16L204.44 387.16Q205.64 387.16 206.32 388.02Q207 388.88 207 390.68L207 390.68Q207 392.52 206.2 394.12Q205.4 395.72 204 397.24L204 397.24Q203.84 397.36 203.72 397.22Q203.6 397.08 203.68 396.96L203.68 396.96Q204.64 395.64 204.92 394.48Q205.2 393.32 205.2 392.08L205.2 392.08Q205.2 390.92 204.88 390.24L204.88 390.24Q204.84 390.24 204.84 390.2L204.84 390.2Q204.56 390.32 204.2 390.32L204.2 390.32Q203.44 390.32 203.02 389.9Q202.6 389.48 202.6 388.76L202.6 388.76Q202.6 388 203.06 387.58Q203.52 387.16 204.44 387.16M220.4 390L220.4 390Q220.28 390 220.28 389.76Q220.28 389.52 220.4 389.52L220.4 389.52Q221.96 389.52 222.42 388.98Q222.88 388.44 222.88 386.76L222.88 386.76L222.88 378.84Q222.88 377.52 222.58 376.9Q222.28 376.28 221.48 376.28L221.48 376.28Q221.08 376.28 220.54 376.44Q220 376.6 219.32 376.88L219.32 376.88Q219.16 376.92 219.06 376.72Q218.96 376.52 219.12 376.44L219.12 376.44L223.76 374.24Q223.88 374.2 224 374.2L224 374.2Q224.28 374.2 224.72 375.04Q225.16 375.88 225.16 377.48L225.16 377.48L225.16 377.52Q226 376.56 226.6 375.92L226.6 375.92Q227.56 374.96 228.26 374.58Q228.96 374.2 229.6 374.2L229.6 374.2Q230.44 374.2 231.26 374.68Q232.08 375.16 232.08 375.84L232.08 375.84Q232.08 376.36 231.74 376.72Q231.4 377.08 230.76 377.08L230.76 377.08Q230.24 377.08 229.88 376.76Q229.52 376.44 229.12 376.16Q228.72 375.88 228.08 375.88L228.08 375.88Q227.72 375.88 227.32 376.08Q226.92 376.28 226.24 376.96L226.24 376.96Q225.8 377.44 225.16 378.16L225.16 378.16L225.16 386.76Q225.16 387.88 225.44 388.5Q225.72 389.12 226.56 389.32Q227.4 389.52 229.04 389.52L229.04 389.52Q229.2 389.52 229.2 389.76Q229.2 390 229.04 390L229.04 390Q228.08 390 226.78 389.96Q225.48 389.92 224.04 389.92L224.04 389.92Q223 389.92 222.04 389.96Q221.08 390 220.4 390M249.16 388.28L245.04 390.24Q244.88 390.32 244.72 390.32L244.72 390.32Q244.2 390.32 243.72 389.44L243.72 389.44Q243.36 388.8 243.28 387.72L243.28 387.72L241.2 389.08Q240.24 389.72 239.46 390Q238.68 390.28 237.84 390.28L237.84 390.28Q236.32 390.28 235.52 389.46Q234.72 388.64 234.72 387.52L234.72 387.52Q234.72 386.72 235.14 386.06Q235.56 385.4 236.48 384.84Q237.4 384.28 238.84 383.76L238.84 383.76L243.24 382.12L243.24 379.4Q243.24 376.92 242.54 375.92Q241.84 374.92 240.72 374.92L240.72 374.92Q239.72 374.92 239.08 375.42Q238.44 375.92 238.14 376.6Q237.84 377.28 237.72 377.88L237.72 377.88Q237.6 378.44 237.32 378.98Q237.04 379.52 236.2 379.52L236.2 379.52Q235.52 379.52 235.2 379.14Q234.88 378.76 234.88 378.32L234.88 378.32Q234.88 377.56 235.62 376.84Q236.36 376.12 237.5 375.5Q238.64 374.88 239.9 374.52Q241.16 374.16 242.16 374.16L242.16 374.16Q243.8 374.16 244.64 375.22Q245.48 376.28 245.48 378.2L245.48 378.2L245.48 385.68Q245.48 387.08 245.84 387.72Q246.2 388.36 247 388.36L247 388.36Q247.72 388.36 249 387.84L249 387.84Q249.08 387.8 249.16 387.84L249.16 387.84Q249.24 387.88 249.28 387.96L249.28 387.96Q249.36 388.2 249.16 388.28L249.16 388.28M241.56 388.16L243.24 387.16Q243.24 387.04 243.24 386.96L243.24 386.96L243.24 382.68L239.52 384.12Q238.8 384.4 238.32 384.76Q237.84 385.12 237.62 385.56Q237.4 386 237.4 386.52L237.4 386.52Q237.4 387.44 238 388.12Q238.6 388.8 239.64 388.8L239.64 388.8Q240.04 388.8 240.48 388.68Q240.92 388.56 241.56 388.16L241.56 388.16M251.36 390L251.36 390Q251.28 390 251.28 389.76Q251.28 389.52 251.36 389.52L251.36 389.52Q252.92 389.52 253.42 388.98Q253.92 388.44 253.92 386.76L253.92 386.76L253.92 379.28Q253.92 377.88 253.64 377.22Q253.36 376.56 252.6 376.56L252.6 376.56Q252.28 376.56 251.84 376.7Q251.4 376.84 250.8 377.12L250.8 377.12Q250.64 377.16 250.54 376.94Q250.44 376.72 250.56 376.64L250.56 376.64L255.76 374.24Q255.88 374.2 255.92 374.2L255.92 374.2Q256 374.2 256.12 374.3Q256.24 374.4 256.24 374.52L256.24 374.52Q256.24 374.84 256.2 376.08Q256.16 377.32 256.16 379.24L256.16 379.24L256.16 386.76Q256.16 388.44 256.62 388.98Q257.08 389.52 258.68 389.52L258.68 389.52Q258.8 389.52 258.8 389.76Q258.8 390 258.68 390L258.68 390Q257.96 390 257.02 389.96Q256.08 389.92 255.04 389.92L255.04 389.92Q254 389.92 253.06 389.96Q252.12 390 251.36 390M254.72 369.52L254.72 369.52Q253.92 369.52 253.44 369.08Q252.96 368.64 252.96 367.84L252.96 367.84Q252.96 367.04 253.44 366.6Q253.92 366.16 254.72 366.16L254.72 366.16Q255.52 366.16 255.96 366.6Q256.4 367.04 256.4 367.84L256.4 367.84Q256.4 369.52 254.72 369.52M272.72 390L272.72 390Q272.6 390 272.6 389.76Q272.6 389.52 272.72 389.52L272.72 389.52Q274.28 389.52 274.74 388.98Q275.2 388.44 275.2 386.76L275.2 386.76L275.2 380.28Q275.2 377.88 274.32 376.78Q273.44 375.68 271.52 375.68L271.52 375.68Q270.08 375.68 268.56 376.6L268.56 376.6Q267.56 377.2 266.72 378.12L266.72 378.12L266.72 386.76Q266.72 388.44 267.18 388.98Q267.64 389.52 269.2 389.52L269.2 389.52Q269.32 389.52 269.32 389.76Q269.32 390 269.2 390L269.2 390Q268.52 390 267.58 389.96Q266.64 389.92 265.6 389.92Q264.56 389.92 263.6 389.96Q262.64 390 261.96 390L261.96 390Q261.84 390 261.84 389.76Q261.84 389.52 261.96 389.52L261.96 389.52Q263.52 389.52 263.98 388.98Q264.44 388.44 264.44 386.76L264.44 386.76L264.44 378.84Q264.44 377.52 264.14 376.9Q263.84 376.28 263.04 376.28L263.04 376.28Q262.64 376.28 262.1 376.44Q261.56 376.6 260.88 376.88L260.88 376.88Q260.72 376.92 260.62 376.72Q260.52 376.52 260.68 376.44L260.68 376.44L265.32 374.24Q265.44 374.2 265.56 374.2L265.56 374.2Q265.84 374.2 266.28 375.04Q266.72 375.88 266.72 377.48L266.72 377.48L266.72 377.48Q268 376 269.32 375.16L269.32 375.16Q271.04 374.04 272.84 374.04L272.84 374.04Q275.04 374.04 276.26 375.26Q277.48 376.48 277.48 378.92L277.48 378.92L277.48 386.76Q277.48 388.44 277.94 388.98Q278.4 389.52 279.96 389.52L279.96 389.52Q280.08 389.52 280.08 389.76Q280.08 390 279.96 390L279.96 390Q279.28 390 278.34 389.96Q277.4 389.92 276.36 389.92Q275.32 389.92 274.36 389.96Q273.4 390 272.72 390M306.88 388.28L302.76 390.24Q302.6 390.32 302.44 390.32L302.44 390.32Q301.92 390.32 301.44 389.44L301.44 389.44Q301.08 388.8 301 387.72L301 387.72L298.92 389.08Q297.96 389.72 297.18 390Q296.4 390.28 295.56 390.28L295.56 390.28Q294.04 390.28 293.24 389.46Q292.44 388.64 292.44 387.52L292.44 387.52Q292.44 386.72 292.86 386.06Q293.28 385.4 294.2 384.84Q295.12 384.28 296.56 383.76L296.56 383.76L300.96 382.12L300.96 379.4Q300.96 376.92 300.26 375.92Q299.56 374.92 298.44 374.92L298.44 374.92Q297.44 374.92 296.8 375.42Q296.16 375.92 295.86 376.6Q295.56 377.28 295.44 377.88L295.44 377.88Q295.32 378.44 295.04 378.98Q294.76 379.52 293.92 379.52L293.92 379.52Q293.24 379.52 292.92 379.14Q292.6 378.76 292.6 378.32L292.6 378.32Q292.6 377.56 293.34 376.84Q294.08 376.12 295.22 375.5Q296.36 374.88 297.62 374.52Q298.88 374.16 299.88 374.16L299.88 374.16Q301.52 374.16 302.36 375.22Q303.2 376.28 303.2 378.2L303.2 378.2L303.2 385.68Q303.2 387.08 303.56 387.72Q303.92 388.36 304.72 388.36L304.72 388.36Q305.44 388.36 306.72 387.84L306.72 387.84Q306.8 387.8 306.88 387.84L306.88 387.84Q306.96 387.88 307 387.96L307 387.96Q307.08 388.2 306.88 388.28L306.88 388.28M299.28 388.16L300.96 387.16Q300.96 387.04 300.96 386.96L300.96 386.96L300.96 382.68L297.24 384.12Q296.52 384.4 296.04 384.76Q295.56 385.12 295.34 385.56Q295.12 386 295.12 386.52L295.12 386.52Q295.12 387.44 295.72 388.12Q296.32 388.8 297.36 388.8L297.36 388.8Q297.76 388.8 298.2 388.68Q298.64 388.56 299.28 388.16L299.28 388.16M319.52 390L319.52 390Q319.4 390 319.4 389.76Q319.4 389.52 319.52 389.52L319.52 389.52Q321.08 389.52 321.54 388.98Q322 388.44 322 386.76L322 386.76L322 380.28Q322 377.88 321.12 376.78Q320.24 375.68 318.32 375.68L318.32 375.68Q316.88 375.68 315.36 376.6L315.36 376.6Q314.36 377.2 313.52 378.12L313.52 378.12L313.52 386.76Q313.52 388.44 313.98 388.98Q314.44 389.52 316 389.52L316 389.52Q316.12 389.52 316.12 389.76Q316.12 390 316 390L316 390Q315.32 390 314.38 389.96Q313.44 389.92 312.4 389.92Q311.36 389.92 310.4 389.96Q309.44 390 308.76 390L308.76 390Q308.64 390 308.64 389.76Q308.64 389.52 308.76 389.52L308.76 389.52Q310.32 389.52 310.78 388.98Q311.24 388.44 311.24 386.76L311.24 386.76L311.24 378.84Q311.24 377.52 310.94 376.9Q310.64 376.28 309.84 376.28L309.84 376.28Q309.44 376.28 308.9 376.44Q308.36 376.6 307.68 376.88L307.68 376.88Q307.52 376.92 307.42 376.72Q307.32 376.52 307.48 376.44L307.48 376.44L312.12 374.24Q312.24 374.2 312.36 374.2L312.36 374.2Q312.64 374.2 313.08 375.04Q313.52 375.88 313.52 377.48L313.52 377.48L313.52 377.48Q314.8 376 316.12 375.16L316.12 375.16Q317.84 374.04 319.64 374.04L319.64 374.04Q321.84 374.04 323.06 375.26Q324.28 376.48 324.28 378.92L324.28 378.92L324.28 386.76Q324.28 388.44 324.74 388.98Q325.2 389.52 326.76 389.52L326.76 389.52Q326.88 389.52 326.88 389.76Q326.88 390 326.76 390L326.76 390Q326.08 390 325.14 389.96Q324.2 389.92 323.16 389.92Q322.12 389.92 321.16 389.96Q320.2 390 319.52 390M335.32 390.52L335.32 390.52Q333.68 390.52 332.24 389.56Q330.8 388.6 329.94 386.9Q329.08 385.2 329.08 382.88L329.08 382.88Q329.08 380.6 329.94 378.94Q330.8 377.28 332.16 376.2Q333.52 375.12 335.12 374.58Q336.72 374.04 338.2 374.04L338.2 374.04Q339.6 374.04 340.84 374.52L340.84 374.52Q341.48 374.76 342.04 375.12L342.04 375.12L342.04 366.12Q342.04 364.68 341.76 364.04Q341.48 363.4 340.72 363.4L340.72 363.4Q340.36 363.4 339.94 363.54Q339.52 363.68 338.88 363.96L338.88 363.96Q338.84 364 338.8 363.96L338.8 363.96Q338.68 363.96 338.64 363.8L338.64 363.8Q338.56 363.6 338.6 363.56L338.6 363.56Q338.6 363.52 338.64 363.52L338.64 363.52L343.72 361.04Q343.8 361 343.92 361Q344.04 361 344.16 361.1Q344.28 361.2 344.28 361.32L344.28 361.32L344.28 385.6Q344.28 387.04 344.6 387.68Q344.92 388.32 345.72 388.32L345.72 388.32Q346.12 388.32 346.66 388.22Q347.2 388.12 347.8 387.76L347.8 387.76Q348 387.68 348.1 387.9Q348.2 388.12 348.04 388.2L348.04 388.2L343.64 390.28Q343.48 390.36 343.32 390.36L343.32 390.36Q342.84 390.36 342.44 389.44L342.44 389.44Q342.08 388.6 342.04 387.04L342.04 387.04Q341.6 387.48 341.08 387.96L341.08 387.96Q339.96 389.04 338.54 389.78Q337.12 390.52 335.32 390.52M342.04 386.4L342.04 377.64Q341.28 376.64 340.4 375.88L340.4 375.88Q339.16 374.84 337.12 374.84L337.12 374.84Q334.68 374.84 333.18 376.58Q331.68 378.32 331.68 381.68L331.68 381.68Q331.68 383.96 332.36 385.62Q333.04 387.28 334.24 388.18Q335.44 389.08 336.88 389.08L336.88 389.08Q338.68 389.08 340.08 388.08L340.08 388.08Q341.12 387.36 342.04 386.4L342.04 386.4M364.68 401.2L364.68 401.2Q361.88 401.2 360.32 399.94Q358.76 398.68 358.76 396.8L358.76 396.8Q358.76 394.88 360.36 393.12L360.36 393.12Q361.36 392.04 362.92 390.96L362.92 390.96Q361.48 390.8 360.64 390.2L360.64 390.2Q359.76 389.6 359.76 388.28L359.76 388.28Q359.76 386.92 360.64 385.88L360.64 385.88Q361.4 385.04 362.64 384L362.64 384Q362.6 384 362.56 383.96L362.56 383.96Q361.2 383.24 360.48 382.04Q359.76 380.84 359.76 379.48L359.76 379.48Q359.76 378 360.56 376.82Q361.36 375.64 362.8 374.96Q364.24 374.28 366.12 374.28L366.12 374.28Q368.28 374.28 369.6 375.04L369.6 375.04Q369.96 375.28 370.28 375.52L370.28 375.52Q371.12 375.04 371.96 374.68L371.96 374.68Q373.12 374.24 374.56 374.24L374.56 374.24Q374.64 374.24 374.7 374.52Q374.76 374.8 374.76 375.12L374.76 375.12Q374.76 375.56 374.68 376.04L374.68 376.04Q374.56 376.48 374.44 376.48L374.44 376.48Q374.44 376.48 374.4 376.48L374.4 376.48Q374.04 376.32 373.34 376.1Q372.64 375.88 371.72 375.88L371.72 375.88Q371.2 375.88 370.76 375.96L370.76 375.96Q370.76 375.96 370.76 375.96L370.76 375.96Q371.24 376.44 371.52 377L371.52 377Q372.12 378.2 372.12 379.4L372.12 379.4Q372.12 380.8 371.36 382Q370.6 383.2 369.18 383.94Q367.76 384.68 365.84 384.68L365.84 384.68Q364.4 384.68 363.24 384.28L363.24 384.28Q362.52 384.88 362.16 385.44L362.16 385.44Q361.76 386.08 361.76 386.84L361.76 386.84Q361.76 387.72 362.32 388.2Q362.88 388.68 364.16 388.86Q365.44 389.04 367.56 389.08L367.56 389.08Q368.56 389.08 369.74 389.12Q370.92 389.16 372.04 389.5Q373.16 389.84 373.88 390.68Q374.6 391.52 374.6 393.12L374.6 393.12Q374.6 394.8 373.78 396.26Q372.96 397.72 371.56 398.84Q370.16 399.96 368.36 400.58Q366.56 401.2 364.68 401.2M363.84 391.04L363.84 391.04Q363.48 391.24 363.2 391.48L363.2 391.48Q362.2 392.16 361.62 393.1Q361.04 394.04 361.04 395.48L361.04 395.48Q361.04 396.84 361.66 397.86Q362.28 398.88 363.46 399.44Q364.64 400 366.32 400L366.32 400Q369.08 400 370.84 398.56Q372.6 397.12 372.6 394.64L372.6 394.64Q372.6 392.96 371.78 392.24Q370.96 391.52 369.54 391.34Q368.12 391.16 366.24 391.16L366.24 391.16Q364.96 391.12 363.84 391.04M366.6 384.08L366.6 384.08Q367.88 384.08 368.74 383.2Q369.6 382.32 369.6 380.28L369.6 380.28Q369.6 378.56 369 377.36Q368.4 376.16 367.4 375.52Q366.4 374.88 365.16 374.88L365.16 374.88Q363.84 374.88 363.02 375.72Q362.2 376.56 362.2 378.52L362.2 378.52Q362.2 380.4 362.88 381.64Q363.56 382.88 364.56 383.48Q365.56 384.08 366.6 384.08M383.56 390.48L383.56 390.48Q381.16 390.48 379.52 389.38Q377.88 388.28 377.06 386.52Q376.24 384.76 376.24 382.8L376.24 382.8Q376.24 380.36 377.36 378.42Q378.48 376.48 380.42 375.34Q382.36 374.2 384.68 374.2L384.68 374.2Q386.96 374.2 388.14 375.4Q389.32 376.6 389.32 378.76L389.32 378.76Q389.32 379.28 389.22 379.54Q389.12 379.8 388.84 379.8L388.84 379.8L387.2 379.8L378.96 379.84Q378.88 380.52 378.88 381.28L378.88 381.28Q378.88 383.56 379.6 385.32Q380.32 387.08 381.72 388.08Q383.12 389.08 385.12 389.08L385.12 389.08Q386.48 389.08 387.36 388.68Q388.24 388.28 389.12 387.76L389.12 387.76Q389.12 387.76 389.16 387.72L389.16 387.72Q389.24 387.72 389.36 387.84L389.36 387.84Q389.48 388.04 389.4 388.16L389.4 388.16Q388 389.4 386.54 389.94Q385.08 390.48 383.56 390.48M379.04 379.32L386.64 379.16Q386.64 377.2 385.88 376.16L385.88 376.16Q385 375 383.36 375L383.36 375Q381.24 375 380.08 376.68L380.08 376.68Q379.32 377.76 379.04 379.32L379.04 379.32M403.68 390L403.68 390Q403.56 390 403.56 389.76Q403.56 389.52 403.68 389.52L403.68 389.52Q405.24 389.52 405.7 388.98Q406.16 388.44 406.16 386.76L406.16 386.76L406.16 380.28Q406.16 377.88 405.28 376.78Q404.4 375.68 402.48 375.68L402.48 375.68Q401.04 375.68 399.52 376.6L399.52 376.6Q398.52 377.2 397.68 378.12L397.68 378.12L397.68 386.76Q397.68 388.44 398.14 388.98Q398.6 389.52 400.16 389.52L400.16 389.52Q400.28 389.52 400.28 389.76Q400.28 390 400.16 390L400.16 390Q399.48 390 398.54 389.96Q397.6 389.92 396.56 389.92Q395.52 389.92 394.56 389.96Q393.6 390 392.92 390L392.92 390Q392.8 390 392.8 389.76Q392.8 389.52 392.92 389.52L392.92 389.52Q394.48 389.52 394.94 388.98Q395.4 388.44 395.4 386.76L395.4 386.76L395.4 378.84Q395.4 377.52 395.1 376.9Q394.8 376.28 394 376.28L394 376.28Q393.6 376.28 393.06 376.44Q392.52 376.6 391.84 376.88L391.84 376.88Q391.68 376.92 391.58 376.72Q391.48 376.52 391.64 376.44L391.64 376.44L396.28 374.24Q396.4 374.2 396.52 374.2L396.52 374.2Q396.8 374.2 397.24 375.04Q397.68 375.88 397.68 377.48L397.68 377.48L397.68 377.48Q398.96 376 400.28 375.16L400.28 375.16Q402 374.04 403.8 374.04L403.8 374.04Q406 374.04 407.22 375.26Q408.44 376.48 408.44 378.92L408.44 378.92L408.44 386.76Q408.44 388.44 408.9 388.98Q409.36 389.52 410.92 389.52L410.92 389.52Q411.04 389.52 411.04 389.76Q411.04 390 410.92 390L410.92 390Q410.24 390 409.3 389.96Q408.36 389.92 407.32 389.92Q406.28 389.92 405.32 389.96Q404.36 390 403.68 390M419.32 390.48L419.32 390.48Q418.36 390.48 417.48 390.18Q416.6 389.88 416.04 389.16Q415.48 388.44 415.48 387.2L415.48 387.2L415.48 377.8Q415.48 376.84 415.36 376.36Q415.24 375.88 414.8 375.74Q414.36 375.6 413.44 375.6L413.44 375.6Q413.28 375.6 413.28 375.34Q413.28 375.08 413.44 375.08L413.44 375.08Q415.04 375.04 416.06 374.2Q417.08 373.36 417.2 372.04L417.2 372.04Q417.2 371.92 417.5 371.92Q417.8 371.92 417.8 372.04L417.8 372.04L417.8 375Q419.04 374.96 420.2 374.88L420.2 374.88Q421.68 374.76 423.36 374.6L423.36 374.6Q423.44 374.6 423.54 374.88Q423.64 375.16 423.64 375.56L423.64 375.56Q423.64 375.84 423.5 376.2Q423.36 376.56 423.2 376.52L423.2 376.52Q421.64 376.12 420.2 376L420.2 376Q419.08 375.92 417.8 375.88L417.8 375.88L417.8 385.84Q417.8 387.48 418.62 388.28Q419.44 389.08 420.96 389.08L420.96 389.08Q422 389.08 422.82 388.74Q423.64 388.4 424.16 387.96L424.16 387.96Q424.32 387.88 424.48 388.04L424.48 388.04Q424.52 388.16 424.52 388.24L424.52 388.24Q424.52 388.32 424.44 388.36L424.44 388.36Q422.96 389.48 421.78 389.98Q420.6 390.48 419.32 390.48M426.92 390L426.92 390Q426.8 390 426.8 389.76Q426.8 389.52 426.92 389.52L426.92 389.52Q428.48 389.52 428.96 388.98Q429.44 388.44 429.44 386.76L429.44 386.76L429.44 366.08Q429.44 364.68 429.16 364.02Q428.88 363.36 428.16 363.36L428.16 363.36Q427.56 363.36 426.32 363.92L426.32 363.92Q426.28 363.92 426.28 363.92L426.28 363.92Q426.16 363.92 426.08 363.76L426.08 363.76Q426 363.6 426.04 363.52L426.04 363.52Q426.08 363.48 426.12 363.48L426.12 363.48L431.24 361.04Q431.32 361 431.44 361L431.44 361Q431.52 361 431.66 361.1Q431.8 361.2 431.8 361.32L431.8 361.32L431.8 386.76Q431.8 388.44 432.24 388.98Q432.68 389.52 434.28 389.52L434.28 389.52Q434.4 389.52 434.4 389.76Q434.4 390 434.28 390L434.28 390Q433.6 390 432.64 389.96Q431.68 389.92 430.6 389.92L430.6 389.92Q429.56 389.92 428.58 389.96Q427.6 390 426.92 390M444.4 390.48L444.4 390.48Q442 390.48 440.36 389.38Q438.72 388.28 437.9 386.52Q437.08 384.76 437.08 382.8L437.08 382.8Q437.08 380.36 438.2 378.42Q439.32 376.48 441.26 375.34Q443.2 374.2 445.52 374.2L445.52 374.2Q447.8 374.2 448.98 375.4Q450.16 376.6 450.16 378.76L450.16 378.76Q450.16 379.28 450.06 379.54Q449.96 379.8 449.68 379.8L449.68 379.8L448.04 379.8L439.8 379.84Q439.72 380.52 439.72 381.28L439.72 381.28Q439.72 383.56 440.44 385.32Q441.16 387.08 442.56 388.08Q443.96 389.08 445.96 389.08L445.96 389.08Q447.32 389.08 448.2 388.68Q449.08 388.28 449.96 387.76L449.96 387.76Q449.96 387.76 450 387.72L450 387.72Q450.08 387.72 450.2 387.84L450.2 387.84Q450.32 388.04 450.24 388.16L450.24 388.16Q448.84 389.4 447.38 389.94Q445.92 390.48 444.4 390.48M439.88 379.32L447.48 379.16Q447.48 377.2 446.72 376.16L446.72 376.16Q445.84 375 444.2 375L444.2 375Q442.08 375 440.92 376.68L440.92 376.68Q440.16 377.76 439.88 379.32L439.88 379.32M473.88 390L473.88 390Q473.76 390 473.76 389.76Q473.76 389.52 473.88 389.52L473.88 389.52Q475.44 389.52 475.9 388.98Q476.36 388.44 476.36 386.76L476.36 386.76L476.36 380.28Q476.36 377.88 475.48 376.78Q474.6 375.68 472.68 375.68L472.68 375.68Q471.24 375.68 469.72 376.6L469.72 376.6Q468.72 377.2 467.88 378.12L467.88 378.12L467.88 386.76Q467.88 388.44 468.34 388.98Q468.8 389.52 470.36 389.52L470.36 389.52Q470.48 389.52 470.48 389.76Q470.48 390 470.36 390L470.36 390Q469.68 390 468.74 389.96Q467.8 389.92 466.76 389.92Q465.72 389.92 464.76 389.96Q463.8 390 463.12 390L463.12 390Q463 390 463 389.76Q463 389.52 463.12 389.52L463.12 389.52Q464.68 389.52 465.14 388.98Q465.6 388.44 465.6 386.76L465.6 386.76L465.6 378.84Q465.6 377.52 465.3 376.9Q465 376.28 464.2 376.28L464.2 376.28Q463.8 376.28 463.26 376.44Q462.72 376.6 462.04 376.88L462.04 376.88Q461.88 376.92 461.78 376.72Q461.68 376.52 461.84 376.44L461.84 376.44L466.48 374.24Q466.6 374.2 466.72 374.2L466.72 374.2Q467 374.2 467.44 375.04Q467.88 375.88 467.88 377.48L467.88 377.48L467.88 377.48Q469.16 376 470.48 375.16L470.48 375.16Q472.2 374.04 474 374.04L474 374.04Q476.2 374.04 477.42 375.26Q478.64 376.48 478.64 378.92L478.64 378.92L478.64 386.76Q478.64 388.44 479.1 388.98Q479.56 389.52 481.12 389.52L481.12 389.52Q481.24 389.52 481.24 389.76Q481.24 390 481.12 390L481.12 390Q480.44 390 479.5 389.96Q478.56 389.92 477.52 389.92Q476.48 389.92 475.52 389.96Q474.56 390 473.88 390M491.24 390.52L491.24 390.52Q488.88 390.52 487.12 389.36Q485.36 388.2 484.4 386.26Q483.44 384.32 483.44 382.08L483.44 382.08Q483.44 380 484.2 378.48Q484.96 376.96 486.24 375.98Q487.52 375 489.02 374.52Q490.52 374.04 491.96 374.04L491.96 374.04Q494.4 374.04 496.14 375.24Q497.88 376.44 498.8 378.32Q499.72 380.2 499.72 382.28L499.72 382.28Q499.72 384.84 498.56 386.68Q497.4 388.52 495.48 389.52Q493.56 390.52 491.24 390.52M492.4 389.76L492.4 389.76Q494.52 389.76 495.76 388.26Q497 386.76 497 383.4L497 383.4Q497 380.88 496.18 378.94Q495.36 377 493.92 375.9Q492.48 374.8 490.64 374.8L490.64 374.8Q488.52 374.8 487.32 376.36Q486.12 377.92 486.12 380.84L486.12 380.84Q486.12 383.28 486.92 385.32Q487.72 387.36 489.14 388.56Q490.56 389.76 492.4 389.76M503.28 390L503.28 390Q503.2 390 503.2 389.76Q503.2 389.52 503.28 389.52L503.28 389.52Q504.84 389.52 505.34 388.98Q505.84 388.44 505.84 386.76L505.84 386.76L505.84 379.28Q505.84 377.88 505.56 377.22Q505.28 376.56 504.52 376.56L504.52 376.56Q504.2 376.56 503.76 376.7Q503.32 376.84 502.72 377.12L502.72 377.12Q502.56 377.16 502.46 376.94Q502.36 376.72 502.48 376.64L502.48 376.64L507.68 374.24Q507.8 374.2 507.84 374.2L507.84 374.2Q507.92 374.2 508.04 374.3Q508.16 374.4 508.16 374.52L508.16 374.52Q508.16 374.84 508.12 376.08Q508.08 377.32 508.08 379.24L508.08 379.24L508.08 386.76Q508.08 388.44 508.54 388.98Q509 389.52 510.6 389.52L510.6 389.52Q510.72 389.52 510.72 389.76Q510.72 390 510.6 390L510.6 390Q509.88 390 508.94 389.96Q508 389.92 506.96 389.92L506.96 389.92Q505.92 389.92 504.98 389.96Q504.04 390 503.28 390M506.64 369.52L506.64 369.52Q505.84 369.52 505.36 369.08Q504.88 368.64 504.88 367.84L504.88 367.84Q504.88 367.04 505.36 366.6Q505.84 366.16 506.64 366.16L506.64 366.16Q507.44 366.16 507.88 366.6Q508.32 367.04 508.32 367.84L508.32 367.84Q508.32 369.52 506.64 369.52M516.08 377L516.08 377Q516.08 378.04 516.62 378.76Q517.16 379.48 517.98 379.98Q518.8 380.48 519.72 380.96L519.72 380.96Q520.76 381.48 521.68 382.06Q522.6 382.64 523.2 383.46Q523.8 384.28 523.8 385.6L523.8 385.6Q523.8 386.88 523.16 387.98Q522.52 389.08 521.26 389.76Q520 390.44 518.16 390.44L518.16 390.44Q517.16 390.44 516.24 390.18Q515.32 389.92 514.32 389.24L514.32 389.24Q514.24 389.16 514.16 389.04Q514.08 388.92 514.08 388.76L514.08 388.76L514 385.64Q514 385.52 514.22 385.5Q514.44 385.48 514.48 385.6L514.48 385.6Q514.96 386.96 515.68 387.86Q516.4 388.76 517.32 389.22Q518.24 389.68 519.28 389.68L519.28 389.68Q520.56 389.68 521.26 389.04Q521.96 388.4 521.92 387.16L521.92 387.16Q521.88 386 521.32 385.28Q520.76 384.56 519.94 384.06Q519.12 383.56 518.24 383.12L518.24 383.12Q517.24 382.64 516.34 382.1Q515.44 381.56 514.86 380.72Q514.28 379.88 514.28 378.52L514.28 378.52Q514.28 376.96 515.08 375.98Q515.88 375 517.12 374.54Q518.36 374.08 519.72 374.08L519.72 374.08Q520.48 374.08 521.2 374.2Q521.92 374.32 522.64 374.68L522.64 374.68Q523 374.8 523 375.12L523 375.12Q523 375.76 522.96 376.46Q522.92 377.16 522.92 378.04L522.92 378.04Q522.92 378.12 522.68 378.12Q522.44 378.12 522.44 378.04L522.44 378.04Q522.44 377.12 521.8 376.4Q521.16 375.68 520.2 375.26Q519.24 374.84 518.28 374.84L518.28 374.84Q517.32 374.84 516.7 375.36Q516.08 375.88 516.08 377M534.36 390.48L534.36 390.48Q531.96 390.48 530.32 389.38Q528.68 388.28 527.86 386.52Q527.04 384.76 527.04 382.8L527.04 382.8Q527.04 380.36 528.16 378.42Q529.28 376.48 531.22 375.34Q533.16 374.2 535.48 374.2L535.48 374.2Q537.76 374.2 538.94 375.4Q540.12 376.6 540.12 378.76L540.12 378.76Q540.12 379.28 540.02 379.54Q539.92 379.8 539.64 379.8L539.64 379.8L538 379.8L529.76 379.84Q529.68 380.52 529.68 381.28L529.68 381.28Q529.68 383.56 530.4 385.32Q531.12 387.08 532.52 388.08Q533.92 389.08 535.92 389.08L535.92 389.08Q537.28 389.08 538.16 388.68Q539.04 388.28 539.92 387.76L539.92 387.76Q539.92 387.76 539.96 387.72L539.96 387.72Q540.04 387.72 540.16 387.84L540.16 387.84Q540.28 388.04 540.2 388.16L540.2 388.16Q538.8 389.4 537.34 389.94Q535.88 390.48 534.36 390.48M529.84 379.32L537.44 379.16Q537.44 377.2 536.68 376.16L536.68 376.16Q535.8 375 534.16 375L534.16 375Q532.04 375 530.88 376.68L530.88 376.68Q530.12 377.76 529.84 379.32L529.84 379.32" fill="#b9bfca"/><path d="M101.28 440L101.28 440Q101.16 440 101.16 439.76Q101.16 439.52 101.28 439.52L101.28 439.52Q103 439.52 103.52 439Q104.04 438.48 104.04 436.76L104.04 436.76L104.04 427.76Q104.04 426.8 103.84 426.34Q103.64 425.88 103.04 425.74Q102.44 425.6 101.12 425.6L101.12 425.6Q101 425.6 101 425.34Q101 425.08 101.12 425.08L101.12 425.08Q102.8 425.08 103.36 424.68Q103.92 424.28 103.96 423.28L103.96 423.28Q104.16 416.64 106.4 413.8Q108.64 410.96 112.76 410.96L112.76 410.96Q114.88 410.96 116.14 411.58Q117.4 412.2 117.4 413.08L117.4 413.08Q117.4 413.72 116.98 414.04Q116.56 414.36 116 414.36L116 414.36Q115.52 414.36 115.18 414.1Q114.84 413.84 114.44 413.32L114.44 413.32Q113.84 412.52 113.14 412.08Q112.44 411.64 111.36 411.64L111.36 411.64Q109.16 411.64 107.74 414.2Q106.32 416.76 106.32 422.44L106.32 422.44L106.32 425Q107.36 424.96 108.36 424.88L108.36 424.88Q109.8 424.76 111.44 424.6L111.44 424.6Q111.56 424.6 111.64 424.88Q111.72 425.16 111.72 425.56L111.72 425.56Q111.72 425.84 111.6 426.2Q111.48 426.56 111.32 426.52L111.32 426.52Q109.76 426.12 108.36 426L108.36 426Q107.36 425.92 106.32 425.88L106.32 425.88L106.32 436.76Q106.32 437.92 106.58 438.52Q106.84 439.12 107.68 439.32Q108.52 439.52 110.24 439.52L110.24 439.52Q110.36 439.52 110.36 439.76Q110.36 440 110.24 440L110.24 440Q108.92 440 107.68 439.96Q106.44 439.92 105.12 439.92L105.12 439.92Q104.08 439.92 103.06 439.96Q102.04 440 101.28 440M121.44 440.52L121.44 440.52Q119.08 440.52 117.32 439.36Q115.56 438.2 114.6 436.26Q113.64 434.32 113.64 432.08L113.64 432.08Q113.64 430 114.4 428.48Q115.16 426.96 116.44 425.98Q117.72 425 119.22 424.52Q120.72 424.04 122.16 424.04L122.16 424.04Q124.6 424.04 126.34 425.24Q128.08 426.44 129 428.32Q129.92 430.2 129.92 432.28L129.92 432.28Q129.92 434.84 128.76 436.68Q127.6 438.52 125.68 439.52Q123.76 440.52 121.44 440.52M122.6 439.76L122.6 439.76Q124.72 439.76 125.96 438.26Q127.2 436.76 127.2 433.4L127.2 433.4Q127.2 430.88 126.38 428.94Q125.56 427 124.12 425.9Q122.68 424.8 120.84 424.8L120.84 424.8Q118.72 424.8 117.52 426.36Q116.32 427.92 116.32 430.84L116.32 430.84Q116.32 433.28 117.12 435.32Q117.92 437.36 119.34 438.56Q120.76 439.76 122.6 439.76M133.16 440L133.16 440Q133.04 440 133.04 439.76Q133.04 439.52 133.16 439.52L133.16 439.52Q134.72 439.52 135.18 438.98Q135.64 438.44 135.64 436.76L135.64 436.76L135.64 428.84Q135.64 427.52 135.34 426.9Q135.04 426.28 134.24 426.28L134.24 426.28Q133.84 426.28 133.3 426.44Q132.76 426.6 132.08 426.88L132.08 426.88Q131.92 426.92 131.82 426.72Q131.72 426.52 131.88 426.44L131.88 426.44L136.52 424.24Q136.64 424.2 136.76 424.2L136.76 424.2Q137.04 424.2 137.48 425.04Q137.92 425.88 137.92 427.48L137.92 427.48L137.92 427.52Q138.76 426.56 139.36 425.92L139.36 425.92Q140.32 424.96 141.02 424.58Q141.72 424.2 142.36 424.2L142.36 424.2Q143.2 424.2 144.02 424.68Q144.84 425.16 144.84 425.84L144.84 425.84Q144.84 426.36 144.5 426.72Q144.16 427.08 143.52 427.08L143.52 427.08Q143 427.08 142.64 426.76Q142.28 426.44 141.88 426.16Q141.48 425.88 140.84 425.88L140.84 425.88Q140.48 425.88 140.08 426.08Q139.68 426.28 139 426.96L139 426.96Q138.56 427.44 137.92 428.16L137.92 428.16L137.92 436.76Q137.92 437.88 138.2 438.5Q138.48 439.12 139.32 439.32Q140.16 439.52 141.8 439.52L141.8 439.52Q141.96 439.52 141.96 439.76Q141.96 440 141.8 440L141.8 440Q140.84 440 139.54 439.96Q138.24 439.92 136.8 439.92L136.8 439.92Q135.76 439.92 134.8 439.96Q133.84 440 133.16 440M156.56 440L156.56 440Q156.44 440 156.44 439.76Q156.44 439.52 156.56 439.52L156.56 439.52Q158.28 439.52 158.8 439Q159.32 438.48 159.32 436.76L159.32 436.76L159.32 427.76Q159.32 426.8 159.12 426.34Q158.92 425.88 158.32 425.74Q157.72 425.6 156.4 425.6L156.4 425.6Q156.28 425.6 156.28 425.34Q156.28 425.08 156.4 425.08L156.4 425.08Q158.08 425.08 158.64 424.68Q159.2 424.28 159.24 423.28L159.24 423.28Q159.44 416.64 161.68 413.8Q163.92 410.96 168.04 410.96L168.04 410.96Q170.16 410.96 171.42 411.58Q172.68 412.2 172.68 413.08L172.68 413.08Q172.68 413.72 172.26 414.04Q171.84 414.36 171.28 414.36L171.28 414.36Q170.8 414.36 170.46 414.1Q170.12 413.84 169.72 413.32L169.72 413.32Q169.12 412.52 168.42 412.08Q167.72 411.64 166.64 411.64L166.64 411.64Q164.44 411.64 163.02 414.2Q161.6 416.76 161.6 422.44L161.6 422.44L161.6 425Q162.64 424.96 163.64 424.88L163.64 424.88Q165.08 424.76 166.72 424.6L166.72 424.6Q166.84 424.6 166.92 424.88Q167 425.16 167 425.56L167 425.56Q167 425.84 166.88 426.2Q166.76 426.56 166.6 426.52L166.6 426.52Q165.04 426.12 163.64 426L163.64 426Q162.64 425.92 161.6 425.88L161.6 425.88L161.6 436.76Q161.6 437.92 161.86 438.52Q162.12 439.12 162.96 439.32Q163.8 439.52 165.52 439.52L165.52 439.52Q165.64 439.52 165.64 439.76Q165.64 440 165.52 440L165.52 440Q164.2 440 162.96 439.96Q161.72 439.92 160.4 439.92L160.4 439.92Q159.36 439.92 158.34 439.96Q157.32 440 156.56 440M184.16 438.28L180.04 440.24Q179.88 440.32 179.72 440.32L179.72 440.32Q179.2 440.32 178.72 439.44L178.72 439.44Q178.36 438.8 178.28 437.72L178.28 437.72L176.2 439.08Q175.24 439.72 174.46 440Q173.68 440.28 172.84 440.28L172.84 440.28Q171.32 440.28 170.52 439.46Q169.72 438.64 169.72 437.52L169.72 437.52Q169.72 436.72 170.14 436.06Q170.56 435.4 171.48 434.84Q172.4 434.28 173.84 433.76L173.84 433.76L178.24 432.12L178.24 429.4Q178.24 426.92 177.54 425.92Q176.84 424.92 175.72 424.92L175.72 424.92Q174.72 424.92 174.08 425.42Q173.44 425.92 173.14 426.6Q172.84 427.28 172.72 427.88L172.72 427.88Q172.6 428.44 172.32 428.98Q172.04 429.52 171.2 429.52L171.2 429.52Q170.52 429.52 170.2 429.14Q169.88 428.76 169.88 428.32L169.88 428.32Q169.88 427.56 170.62 426.84Q171.36 426.12 172.5 425.5Q173.64 424.88 174.9 424.52Q176.16 424.16 177.16 424.16L177.16 424.16Q178.8 424.16 179.64 425.22Q180.48 426.28 180.48 428.2L180.48 428.2L180.48 435.68Q180.48 437.08 180.84 437.72Q181.2 438.36 182 438.36L182 438.36Q182.72 438.36 184 437.84L184 437.84Q184.08 437.8 184.16 437.84L184.16 437.84Q184.24 437.88 184.28 437.96L184.28 437.96Q184.36 438.2 184.16 438.28L184.16 438.28M176.56 438.16L178.24 437.16Q178.24 437.04 178.24 436.96L178.24 436.96L178.24 432.68L174.52 434.12Q173.8 434.4 173.32 434.76Q172.84 435.12 172.62 435.56Q172.4 436 172.4 436.52L172.4 436.52Q172.4 437.44 173 438.12Q173.6 438.8 174.64 438.8L174.64 438.8Q175.04 438.8 175.48 438.68Q175.92 438.56 176.56 438.16L176.56 438.16M185.84 440L185.84 440Q185.72 440 185.72 439.76Q185.72 439.52 185.84 439.52L185.84 439.52Q187.4 439.52 187.88 438.98Q188.36 438.44 188.36 436.76L188.36 436.76L188.36 416.08Q188.36 414.68 188.08 414.02Q187.8 413.36 187.08 413.36L187.08 413.36Q186.48 413.36 185.24 413.92L185.24 413.92Q185.2 413.92 185.2 413.92L185.2 413.92Q185.08 413.92 185 413.76L185 413.76Q184.92 413.6 184.96 413.52L184.96 413.52Q185 413.48 185.04 413.48L185.04 413.48L190.16 411.04Q190.24 411 190.36 411L190.36 411Q190.44 411 190.58 411.1Q190.72 411.2 190.72 411.32L190.72 411.32L190.72 436.76Q190.72 438.44 191.16 438.98Q191.6 439.52 193.2 439.52L193.2 439.52Q193.32 439.52 193.32 439.76Q193.32 440 193.2 440L193.2 440Q192.52 440 191.56 439.96Q190.6 439.92 189.52 439.92L189.52 439.92Q188.48 439.92 187.5 439.96Q186.52 440 185.84 440M196.16 440L196.16 440Q196.04 440 196.04 439.76Q196.04 439.52 196.16 439.52L196.16 439.52Q197.72 439.52 198.2 438.98Q198.68 438.44 198.68 436.76L198.68 436.76L198.68 416.08Q198.68 414.68 198.4 414.02Q198.12 413.36 197.4 413.36L197.4 413.36Q196.8 413.36 195.56 413.92L195.56 413.92Q195.52 413.92 195.52 413.92L195.52 413.92Q195.4 413.92 195.32 413.76L195.32 413.76Q195.24 413.6 195.28 413.52L195.28 413.52Q195.32 413.48 195.36 413.48L195.36 413.48L200.48 411.04Q200.56 411 200.68 411L200.68 411Q200.76 411 200.9 411.1Q201.04 411.2 201.04 411.32L201.04 411.32L201.04 436.76Q201.04 438.44 201.48 438.98Q201.92 439.52 203.52 439.52L203.52 439.52Q203.64 439.52 203.64 439.76Q203.64 440 203.52 440L203.52 440Q202.84 440 201.88 439.96Q200.92 439.92 199.84 439.92L199.84 439.92Q198.8 439.92 197.82 439.96Q196.84 440 196.16 440M207 440L207 440Q206.92 440 206.92 439.76Q206.92 439.52 207 439.52L207 439.52Q208.56 439.52 209.06 438.98Q209.56 438.44 209.56 436.76L209.56 436.76L209.56 429.28Q209.56 427.88 209.28 427.22Q209 426.56 208.24 426.56L208.24 426.56Q207.92 426.56 207.48 426.7Q207.04 426.84 206.44 427.12L206.44 427.12Q206.28 427.16 206.18 426.94Q206.08 426.72 206.2 426.64L206.2 426.64L211.4 424.24Q211.52 424.2 211.56 424.2L211.56 424.2Q211.64 424.2 211.76 424.3Q211.88 424.4 211.88 424.52L211.88 424.52Q211.88 424.84 211.84 426.08Q211.8 427.32 211.8 429.24L211.8 429.24L211.8 436.76Q211.8 438.44 212.26 438.98Q212.72 439.52 214.32 439.52L214.32 439.52Q214.44 439.52 214.44 439.76Q214.44 440 214.32 440L214.32 440Q213.6 440 212.66 439.96Q211.72 439.92 210.68 439.92L210.68 439.92Q209.64 439.92 208.7 439.96Q207.76 440 207 440M210.36 419.52L210.36 419.52Q209.56 419.52 209.08 419.08Q208.6 418.64 208.6 417.84L208.6 417.84Q208.6 417.04 209.08 416.6Q209.56 416.16 210.36 416.16L210.36 416.16Q211.16 416.16 211.6 416.6Q212.04 417.04 212.04 417.84L212.04 417.84Q212.04 419.52 210.36 419.52M228.36 440L228.36 440Q228.24 440 228.24 439.76Q228.24 439.52 228.36 439.52L228.36 439.52Q229.92 439.52 230.38 438.98Q230.84 438.44 230.84 436.76L230.84 436.76L230.84 430.28Q230.84 427.88 229.96 426.78Q229.08 425.68 227.16 425.68L227.16 425.68Q225.72 425.68 224.2 426.6L224.2 426.6Q223.2 427.2 222.36 428.12L222.36 428.12L222.36 436.76Q222.36 438.44 222.82 438.98Q223.28 439.52 224.84 439.52L224.84 439.52Q224.96 439.52 224.96 439.76Q224.96 440 224.84 440L224.84 440Q224.16 440 223.22 439.96Q222.28 439.92 221.24 439.92Q220.2 439.92 219.24 439.96Q218.28 440 217.6 440L217.6 440Q217.48 440 217.48 439.76Q217.48 439.52 217.6 439.52L217.6 439.52Q219.16 439.52 219.62 438.98Q220.08 438.44 220.08 436.76L220.08 436.76L220.08 428.84Q220.08 427.52 219.78 426.9Q219.48 426.28 218.68 426.28L218.68 426.28Q218.28 426.28 217.74 426.44Q217.2 426.6 216.52 426.88L216.52 426.88Q216.36 426.92 216.26 426.72Q216.16 426.52 216.32 426.44L216.32 426.44L220.96 424.24Q221.08 424.2 221.2 424.2L221.2 424.2Q221.48 424.2 221.92 425.04Q222.36 425.88 222.36 427.48L222.36 427.48L222.36 427.48Q223.64 426 224.96 425.16L224.96 425.16Q226.68 424.04 228.48 424.04L228.48 424.04Q230.68 424.04 231.9 425.26Q233.12 426.48 233.12 428.92L233.12 428.92L233.12 436.76Q233.12 438.44 233.58 438.98Q234.04 439.52 235.6 439.52L235.6 439.52Q235.72 439.52 235.72 439.76Q235.72 440 235.6 440L235.6 440Q234.92 440 233.98 439.96Q233.04 439.92 232 439.92Q230.96 439.92 230 439.96Q229.04 440 228.36 440M243.68 451.2L243.68 451.2Q240.88 451.2 239.32 449.94Q237.76 448.68 237.76 446.8L237.76 446.8Q237.76 444.88 239.36 443.12L239.36 443.12Q240.36 442.04 241.92 440.96L241.92 440.96Q240.48 440.8 239.64 440.2L239.64 440.2Q238.76 439.6 238.76 438.28L238.76 438.28Q238.76 436.92 239.64 435.88L239.64 435.88Q240.4 435.04 241.64 434L241.64 434Q241.6 434 241.56 433.96L241.56 433.96Q240.2 433.24 239.48 432.04Q238.76 430.84 238.76 429.48L238.76 429.48Q238.76 428 239.56 426.82Q240.36 425.64 241.8 424.96Q243.24 424.28 245.12 424.28L245.12 424.28Q247.28 424.28 248.6 425.04L248.6 425.04Q248.96 425.28 249.28 425.52L249.28 425.52Q250.12 425.04 250.96 424.68L250.96 424.68Q252.12 424.24 253.56 424.24L253.56 424.24Q253.64 424.24 253.7 424.52Q253.76 424.8 253.76 425.12L253.76 425.12Q253.76 425.56 253.68 426.04L253.68 426.04Q253.56 426.48 253.44 426.48L253.44 426.48Q253.44 426.48 253.4 426.48L253.4 426.48Q253.04 426.32 252.34 426.1Q251.64 425.88 250.72 425.88L250.72 425.88Q250.2 425.88 249.76 425.96L249.76 425.96Q249.76 425.96 249.76 425.96L249.76 425.96Q250.24 426.44 250.52 427L250.52 427Q251.12 428.2 251.12 429.4L251.12 429.4Q251.12 430.8 250.36 432Q249.6 433.2 248.18 433.94Q246.76 434.68 244.84 434.68L244.84 434.68Q243.4 434.68 242.24 434.28L242.24 434.28Q241.52 434.88 241.16 435.44L241.16 435.44Q240.76 436.08 240.76 436.84L240.76 436.84Q240.76 437.72 241.32 438.2Q241.88 438.68 243.16 438.86Q244.44 439.04 246.56 439.08L246.56 439.08Q247.56 439.08 248.74 439.12Q249.92 439.16 251.04 439.5Q252.16 439.84 252.88 440.68Q253.6 441.52 253.6 443.12L253.6 443.12Q253.6 444.8 252.78 446.26Q251.96 447.72 250.56 448.84Q249.16 449.96 247.36 450.58Q245.56 451.2 243.68 451.2M242.84 441.04L242.84 441.04Q242.48 441.24 242.2 441.48L242.2 441.48Q241.2 442.16 240.62 443.1Q240.04 444.04 240.04 445.48L240.04 445.48Q240.04 446.84 240.66 447.86Q241.28 448.88 242.46 449.44Q243.64 450 245.32 450L245.32 450Q248.08 450 249.84 448.56Q251.6 447.12 251.6 444.64L251.6 444.64Q251.6 442.96 250.78 442.24Q249.96 441.52 248.54 441.34Q247.12 441.16 245.24 441.16L245.24 441.16Q243.96 441.12 242.84 441.04M245.6 434.08L245.6 434.08Q246.88 434.08 247.74 433.2Q248.6 432.32 248.6 430.28L248.6 430.28Q248.6 428.56 248 427.36Q247.4 426.16 246.4 425.52Q245.4 424.88 244.16 424.88L244.16 424.88Q242.84 424.88 242.02 425.72Q241.2 426.56 241.2 428.52L241.2 428.52Q241.2 430.4 241.88 431.64Q242.56 432.88 243.56 433.48Q244.56 434.08 245.6 434.08M280.32 438.28L276.2 440.24Q276.04 440.32 275.88 440.32L275.88 440.32Q275.36 440.32 274.88 439.44L274.88 439.44Q274.52 438.8 274.44 437.72L274.44 437.72L272.36 439.08Q271.4 439.72 270.62 440Q269.84 440.28 269 440.28L269 440.28Q267.48 440.28 266.68 439.46Q265.88 438.64 265.88 437.52L265.88 437.52Q265.88 436.72 266.3 436.06Q266.72 435.4 267.64 434.84Q268.56 434.28 270 433.76L270 433.76L274.4 432.12L274.4 429.4Q274.4 426.92 273.7 425.92Q273 424.92 271.88 424.92L271.88 424.92Q270.88 424.92 270.24 425.42Q269.6 425.92 269.3 426.6Q269 427.28 268.88 427.88L268.88 427.88Q268.76 428.44 268.48 428.98Q268.2 429.52 267.36 429.52L267.36 429.52Q266.68 429.52 266.36 429.14Q266.04 428.76 266.04 428.32L266.04 428.32Q266.04 427.56 266.78 426.84Q267.52 426.12 268.66 425.5Q269.8 424.88 271.06 424.52Q272.32 424.16 273.32 424.16L273.32 424.16Q274.96 424.16 275.8 425.22Q276.64 426.28 276.64 428.2L276.64 428.2L276.64 435.68Q276.64 437.08 277 437.72Q277.36 438.36 278.16 438.36L278.16 438.36Q278.88 438.36 280.16 437.84L280.16 437.84Q280.24 437.8 280.32 437.84L280.32 437.84Q280.4 437.88 280.44 437.96L280.44 437.96Q280.52 438.2 280.32 438.28L280.32 438.28M272.72 438.16L274.4 437.16Q274.4 437.04 274.4 436.96L274.4 436.96L274.4 432.68L270.68 434.12Q269.96 434.4 269.48 434.76Q269 435.12 268.78 435.56Q268.56 436 268.56 436.52L268.56 436.52Q268.56 437.44 269.16 438.12Q269.76 438.8 270.8 438.8L270.8 438.8Q271.2 438.8 271.64 438.68Q272.08 438.56 272.72 438.16L272.72 438.16M284.4 427L284.4 427Q284.4 428.04 284.94 428.76Q285.48 429.48 286.3 429.98Q287.12 430.48 288.04 430.96L288.04 430.96Q289.08 431.48 290 432.06Q290.92 432.64 291.52 433.46Q292.12 434.28 292.12 435.6L292.12 435.6Q292.12 436.88 291.48 437.98Q290.84 439.08 289.58 439.76Q288.32 440.44 286.48 440.44L286.48 440.44Q285.48 440.44 284.56 440.18Q283.64 439.92 282.64 439.24L282.64 439.24Q282.56 439.16 282.48 439.04Q282.4 438.92 282.4 438.76L282.4 438.76L282.32 435.64Q282.32 435.52 282.54 435.5Q282.76 435.48 282.8 435.6L282.8 435.6Q283.28 436.96 284 437.86Q284.72 438.76 285.64 439.22Q286.56 439.68 287.6 439.68L287.6 439.68Q288.88 439.68 289.58 439.04Q290.28 438.4 290.24 437.16L290.24 437.16Q290.2 436 289.64 435.28Q289.08 434.56 288.26 434.06Q287.44 433.56 286.56 433.12L286.56 433.12Q285.56 432.64 284.66 432.1Q283.76 431.56 283.18 430.72Q282.6 429.88 282.6 428.52L282.6 428.52Q282.6 426.96 283.4 425.98Q284.2 425 285.44 424.54Q286.68 424.08 288.04 424.08L288.04 424.08Q288.8 424.08 289.52 424.2Q290.24 424.32 290.96 424.68L290.96 424.68Q291.32 424.8 291.32 425.12L291.32 425.12Q291.32 425.76 291.28 426.46Q291.24 427.16 291.24 428.04L291.24 428.04Q291.24 428.12 291 428.12Q290.76 428.12 290.76 428.04L290.76 428.04Q290.76 427.12 290.12 426.4Q289.48 425.68 288.52 425.26Q287.56 424.84 286.6 424.84L286.6 424.84Q285.64 424.84 285.02 425.36Q284.4 425.88 284.4 427M295.52 440L295.52 440Q295.4 440 295.4 439.76Q295.4 439.52 295.52 439.52L295.52 439.52Q297.08 439.52 297.56 438.98Q298.04 438.44 298.04 436.76L298.04 436.76L298.04 416.08Q298.04 414.68 297.76 414.02Q297.48 413.36 296.76 413.36L296.76 413.36Q296.16 413.36 294.92 413.92L294.92 413.92Q294.88 413.92 294.88 413.92L294.88 413.92Q294.76 413.92 294.68 413.76L294.68 413.76Q294.6 413.6 294.64 413.52L294.64 413.52Q294.68 413.48 294.72 413.48L294.72 413.48L299.84 411.04Q299.92 411 300.04 411L300.04 411Q300.12 411 300.26 411.1Q300.4 411.2 300.4 411.32L300.4 411.32L300.4 436.76Q300.4 438.44 300.84 438.98Q301.28 439.52 302.88 439.52L302.88 439.52Q303 439.52 303 439.76Q303 440 302.88 440L302.88 440Q302.2 440 301.24 439.96Q300.28 439.92 299.2 439.92L299.2 439.92Q298.16 439.92 297.18 439.96Q296.2 440 295.52 440M313 440.48L313 440.48Q310.6 440.48 308.96 439.38Q307.32 438.28 306.5 436.52Q305.68 434.76 305.68 432.8L305.68 432.8Q305.68 430.36 306.8 428.42Q307.92 426.48 309.86 425.34Q311.8 424.2 314.12 424.2L314.12 424.2Q316.4 424.2 317.58 425.4Q318.76 426.6 318.76 428.76L318.76 428.76Q318.76 429.28 318.66 429.54Q318.56 429.8 318.28 429.8L318.28 429.8L316.64 429.8L308.4 429.84Q308.32 430.52 308.32 431.28L308.32 431.28Q308.32 433.56 309.04 435.32Q309.76 437.08 311.16 438.08Q312.56 439.08 314.56 439.08L314.56 439.08Q315.92 439.08 316.8 438.68Q317.68 438.28 318.56 437.76L318.56 437.76Q318.56 437.76 318.6 437.72L318.6 437.72Q318.68 437.72 318.8 437.84L318.8 437.84Q318.92 438.04 318.84 438.16L318.84 438.16Q317.44 439.4 315.98 439.94Q314.52 440.48 313 440.48M308.48 429.32L316.08 429.16Q316.08 427.2 315.32 426.16L315.32 426.16Q314.44 425 312.8 425L312.8 425Q310.68 425 309.52 426.68L309.52 426.68Q308.76 427.76 308.48 429.32L308.48 429.32M329.08 440.48L329.08 440.48Q326.68 440.48 325.04 439.38Q323.4 438.28 322.58 436.52Q321.76 434.76 321.76 432.8L321.76 432.8Q321.76 430.36 322.88 428.42Q324 426.48 325.94 425.34Q327.88 424.2 330.2 424.2L330.2 424.2Q332.48 424.2 333.66 425.4Q334.84 426.6 334.84 428.76L334.84 428.76Q334.84 429.28 334.74 429.54Q334.64 429.8 334.36 429.8L334.36 429.8L332.72 429.8L324.48 429.84Q324.4 430.52 324.4 431.28L324.4 431.28Q324.4 433.56 325.12 435.32Q325.84 437.08 327.24 438.08Q328.64 439.08 330.64 439.08L330.64 439.08Q332 439.08 332.88 438.68Q333.76 438.28 334.64 437.76L334.64 437.76Q334.64 437.76 334.68 437.72L334.68 437.72Q334.76 437.72 334.88 437.84L334.88 437.84Q335 438.04 334.92 438.16L334.92 438.16Q333.52 439.4 332.06 439.94Q330.6 440.48 329.08 440.48M324.56 429.32L332.16 429.16Q332.16 427.2 331.4 426.16L331.4 426.16Q330.52 425 328.88 425L328.88 425Q326.76 425 325.6 426.68L325.6 426.68Q324.84 427.76 324.56 429.32L324.56 429.32M337.92 451L337.92 451Q337.8 451 337.8 450.76Q337.8 450.52 337.92 450.52L337.92 450.52Q339.48 450.52 339.96 450Q340.44 449.48 340.44 447.76L340.44 447.76L340.44 428.96Q340.44 427.56 340.12 426.92Q339.8 426.28 339 426.28L339 426.28Q338.6 426.28 338.06 426.42Q337.52 426.56 336.88 426.84L336.88 426.84Q336.72 426.92 336.6 426.68L336.6 426.68Q336.52 426.56 336.56 426.48L336.56 426.48Q336.6 426.44 336.64 426.4L336.64 426.4L341.08 424.28Q341.2 424.24 341.36 424.24L341.36 424.24Q341.92 424.24 342.32 425.12L342.32 425.12Q342.64 425.96 342.68 427.48L342.68 427.48Q344.2 425.92 345.6 425.12L345.6 425.12Q347.48 424.04 349.4 424.04L349.4 424.04Q351.04 424.04 352.44 424.9Q353.84 425.76 354.68 427.4Q355.52 429.04 355.52 431.4L355.52 431.4Q355.52 433.84 354.7 435.56Q353.88 437.28 352.54 438.38Q351.2 439.48 349.72 440Q348.24 440.52 346.92 440.52L346.92 440.52Q345.4 440.52 344.24 440.16L344.24 440.16Q343.52 439.92 342.68 439.44L342.68 439.44L342.68 447.76Q342.68 448.88 342.98 449.48Q343.28 450.08 344.14 450.3Q345 450.52 346.68 450.52L346.68 450.52Q346.76 450.52 346.76 450.76Q346.76 451 346.68 451L346.68 451Q345.64 451 344.34 450.96Q343.04 450.92 341.6 450.92L341.6 450.92Q340.56 450.92 339.58 450.96Q338.6 451 337.92 451M342.68 428.2L342.68 428.2L342.68 437.12Q343.6 438.12 344.64 438.8L344.64 438.8Q345.96 439.68 348.12 439.68L348.12 439.68Q350.2 439.68 351.58 437.84Q352.96 436 352.96 432.64L352.96 432.64Q352.96 429.16 351.44 427.36Q349.92 425.56 347.72 425.56L347.72 425.56Q345.96 425.56 344.64 426.52L344.64 426.52Q343.64 427.28 342.68 428.2M361.04 440.44L361.04 440.44Q360.24 440.44 359.76 439.98Q359.28 439.52 359.28 438.72L359.28 438.72Q359.28 437.96 359.76 437.5Q360.24 437.04 361.04 437.04L361.04 437.04Q361.88 437.04 362.32 437.5Q362.76 437.96 362.76 438.72L362.76 438.72Q362.76 439.52 362.32 439.98Q361.88 440.44 361.04 440.44" fill="#b9bfca"/><path d="M101.04 548L101.04 548Q100.96 548 100.96 547.84Q100.96 547.69 101.04 547.69L101.04 547.69Q102.05 547.69 102.37 547.34Q102.68 546.99 102.68 545.89L102.68 545.89L102.68 532.45Q102.68 531.54 102.5 531.11Q102.31 530.68 101.85 530.68L101.85 530.68Q101.46 530.68 100.65 531.05L100.65 531.05Q100.62 531.05 100.62 531.05L100.62 531.05Q100.55 531.05 100.49 530.94L100.49 530.94Q100.44 530.84 100.47 530.79L100.47 530.79Q100.49 530.76 100.52 530.76L100.52 530.76L103.85 529.18Q103.9 529.15 103.98 529.15L103.98 529.15Q104.03 529.15 104.12 529.22Q104.21 529.28 104.21 529.36L104.21 529.36L104.21 545.89Q104.21 546.99 104.5 547.34Q104.78 547.69 105.82 547.69L105.82 547.69Q105.9 547.69 105.9 547.84Q105.9 548 105.82 548L105.82 548Q105.38 548 104.76 547.97Q104.13 547.95 103.43 547.95L103.43 547.95Q102.76 547.95 102.12 547.97Q101.48 548 101.04 548M113 548.21L113 548.21Q111.73 548.21 110.99 547.39Q110.24 546.57 110.24 545.01L110.24 545.01L110.24 541.03Q110.24 540.02 110.08 539.56Q109.91 539.11 109.46 539.11L109.46 539.11Q109.1 539.11 108.58 539.37L108.58 539.37Q108.48 539.39 108.42 539.24L108.42 539.24Q108.37 539.13 108.4 539.08L108.4 539.08Q108.42 539.06 108.45 539.06L108.45 539.06L111.34 537.76Q111.39 537.73 111.44 537.73L111.44 537.73Q111.52 537.73 111.61 537.79Q111.7 537.86 111.7 537.94L111.7 537.94L111.7 544.15Q111.7 545.69 112.25 546.43Q112.79 547.17 113.88 547.17L113.88 547.17Q114.87 547.17 115.89 546.57L115.89 546.57Q116.56 546.15 117.13 545.56L117.13 545.56L117.13 541.03Q117.13 540.02 116.97 539.56Q116.8 539.11 116.35 539.11L116.35 539.11Q115.99 539.11 115.47 539.37L115.47 539.37Q115.37 539.39 115.31 539.24L115.31 539.24Q115.29 539.13 115.31 539.08L115.31 539.08Q115.34 539.06 115.37 539.06L115.37 539.06L118.25 537.76Q118.3 537.73 118.33 537.73L118.33 537.73Q118.41 537.73 118.5 537.79Q118.59 537.86 118.59 537.94L118.59 537.94L118.59 545.22Q118.59 546.1 118.8 546.49Q119.01 546.88 119.5 546.88L119.5 546.88Q119.76 546.88 120.09 546.79Q120.41 546.7 120.88 546.52L120.88 546.52Q120.93 546.49 120.98 546.52L120.98 546.52Q121.03 546.54 121.06 546.6L121.06 546.6Q121.11 546.75 121.01 546.8L121.01 546.8L117.97 548.23Q117.91 548.26 117.86 548.26L117.86 548.26Q117.65 548.26 117.39 547.7Q117.13 547.14 117.13 546.1L117.13 546.1L117.13 546Q116.25 546.96 115.42 547.48L115.42 547.48Q114.25 548.21 113 548.21M123.69 548L123.69 548Q123.61 548 123.61 547.84Q123.61 547.69 123.69 547.69L123.69 547.69Q124.7 547.69 125.01 547.34Q125.32 546.99 125.32 545.89L125.32 545.89L125.32 532.45Q125.32 531.54 125.14 531.11Q124.96 530.68 124.49 530.68L124.49 530.68Q124.1 530.68 123.3 531.05L123.3 531.05Q123.27 531.05 123.27 531.05L123.27 531.05Q123.19 531.05 123.14 530.94L123.14 530.94Q123.09 530.84 123.11 530.79L123.11 530.79Q123.14 530.76 123.17 530.76L123.17 530.76L126.49 529.18Q126.55 529.15 126.62 529.15L126.62 529.15Q126.68 529.15 126.77 529.22Q126.86 529.28 126.86 529.36L126.86 529.36L126.86 545.89Q126.86 546.99 127.14 547.34Q127.43 547.69 128.47 547.69L128.47 547.69Q128.55 547.69 128.55 547.84Q128.55 548 128.47 548L128.47 548Q128.03 548 127.4 547.97Q126.78 547.95 126.08 547.95L126.08 547.95Q125.4 547.95 124.77 547.97Q124.13 548 123.69 548M131.95 548L131.95 548Q131.88 548 131.88 547.84Q131.88 547.69 131.95 547.69L131.95 547.69Q132.97 547.69 133.28 547.34Q133.59 546.99 133.59 545.89L133.59 545.89L133.59 532.45Q133.59 531.54 133.41 531.11Q133.23 530.68 132.76 530.68L132.76 530.68Q132.37 530.68 131.56 531.05L131.56 531.05Q131.54 531.05 131.54 531.05L131.54 531.05Q131.46 531.05 131.41 530.94L131.41 530.94Q131.36 530.84 131.38 530.79L131.38 530.79Q131.41 530.76 131.43 530.76L131.43 530.76L134.76 529.18Q134.81 529.15 134.89 529.15L134.89 529.15Q134.94 529.15 135.04 529.22Q135.13 529.28 135.13 529.36L135.13 529.36L135.13 545.89Q135.13 546.99 135.41 547.34Q135.7 547.69 136.74 547.69L136.74 547.69Q136.82 547.69 136.82 547.84Q136.82 548 136.74 548L136.74 548Q136.3 548 135.67 547.97Q135.05 547.95 134.35 547.95L134.35 547.95Q133.67 547.95 133.03 547.97Q132.4 548 131.95 548M141.76 548.29L141.76 548.29Q141.24 548.29 140.92 547.99Q140.61 547.69 140.61 547.17L140.61 547.17Q140.61 546.67 140.92 546.38Q141.24 546.08 141.76 546.08L141.76 546.08Q142.3 546.08 142.59 546.38Q142.87 546.67 142.87 547.17L142.87 547.17Q142.87 547.69 142.59 547.99Q142.3 548.29 141.76 548.29M160.42 548L160.42 548Q160.35 548 160.35 547.84Q160.35 547.69 160.42 547.69L160.42 547.69Q161.44 547.69 161.75 547.34Q162.06 546.99 162.06 545.89L162.06 545.89L162.06 541.76Q162.06 538.72 159.83 538.72L159.83 538.72Q158.89 538.72 157.98 539.32L157.98 539.32Q157.33 539.76 156.78 540.38L156.78 540.38Q156.81 540.59 156.81 540.8L156.81 540.8L156.81 545.89Q156.81 546.99 157.11 547.34Q157.41 547.69 158.45 547.69L158.45 547.69Q158.53 547.69 158.53 547.84Q158.53 548 158.45 548L158.45 548Q157.98 548 157.37 547.97Q156.76 547.95 156.08 547.95Q155.41 547.95 154.78 547.97Q154.16 548 153.72 548L153.72 548Q153.64 548 153.64 547.84Q153.64 547.69 153.72 547.69L153.72 547.69Q154.73 547.69 155.03 547.34Q155.33 546.99 155.33 545.89L155.33 545.89L155.33 541.76Q155.33 538.72 153.12 538.72L153.12 538.72Q152.18 538.72 151.27 539.32L151.27 539.32Q150.65 539.73 150.13 540.33L150.13 540.33L150.13 545.89Q150.13 546.99 150.43 547.34Q150.73 547.69 151.74 547.69L151.74 547.69Q151.82 547.69 151.82 547.84Q151.82 548 151.74 548L151.74 548Q151.3 548 150.69 547.97Q150.08 547.95 149.4 547.95Q148.72 547.95 148.1 547.97Q147.48 548 147.03 548L147.03 548Q146.96 548 146.96 547.84Q146.96 547.69 147.03 547.69L147.03 547.69Q148.05 547.69 148.35 547.34Q148.65 546.99 148.65 545.89L148.65 545.89L148.65 540.75Q148.65 539.89 148.45 539.49Q148.26 539.08 147.74 539.08L147.74 539.08Q147.48 539.08 147.12 539.19Q146.77 539.29 146.33 539.47L146.33 539.47Q146.23 539.5 146.16 539.37Q146.1 539.24 146.2 539.19L146.2 539.19L149.22 537.76Q149.3 537.73 149.37 537.73L149.37 537.73Q149.56 537.73 149.84 538.28Q150.13 538.82 150.13 539.86L150.13 539.86L150.13 539.89Q150.91 538.93 151.71 538.41L151.71 538.41Q152.81 537.7 153.95 537.7L153.95 537.7Q155.3 537.7 156.06 538.46L156.06 538.46Q156.6 539 156.76 539.99L156.76 539.99Q157.62 538.95 158.45 538.41L158.45 538.41Q159.54 537.7 160.68 537.7L160.68 537.7Q162.04 537.7 162.78 538.47Q163.52 539.24 163.52 540.85L163.52 540.85L163.52 545.89Q163.52 546.99 163.82 547.34Q164.12 547.69 165.16 547.69L165.16 547.69Q165.23 547.69 165.23 547.84Q165.23 548 165.16 548L165.16 548Q164.71 548 164.09 547.97Q163.47 547.95 162.79 547.95Q162.11 547.95 161.5 547.97Q160.89 548 160.42 548M178.1 546.88L175.43 548.16Q175.32 548.21 175.22 548.21L175.22 548.21Q174.88 548.21 174.57 547.64L174.57 547.64Q174.33 547.22 174.28 546.52L174.28 546.52L172.93 547.4Q172.31 547.82 171.8 548Q171.29 548.18 170.75 548.18L170.75 548.18Q169.76 548.18 169.24 547.65Q168.72 547.12 168.72 546.39L168.72 546.39Q168.72 545.87 168.99 545.44Q169.26 545.01 169.86 544.65Q170.46 544.28 171.4 543.94L171.4 543.94L174.26 542.88L174.26 541.11Q174.26 539.5 173.8 538.85Q173.35 538.2 172.62 538.2L172.62 538.2Q171.97 538.2 171.55 538.52Q171.14 538.85 170.94 539.29Q170.75 539.73 170.67 540.12L170.67 540.12Q170.59 540.49 170.41 540.84Q170.23 541.19 169.68 541.19L169.68 541.19Q169.24 541.19 169.03 540.94Q168.82 540.69 168.82 540.41L168.82 540.41Q168.82 539.91 169.3 539.45Q169.78 538.98 170.52 538.58Q171.27 538.17 172.08 537.94Q172.9 537.7 173.55 537.7L173.55 537.7Q174.62 537.7 175.17 538.39Q175.71 539.08 175.71 540.33L175.71 540.33L175.71 545.19Q175.71 546.1 175.95 546.52Q176.18 546.93 176.7 546.93L176.7 546.93Q177.17 546.93 178 546.6L178 546.6Q178.05 546.57 178.1 546.6L178.1 546.6Q178.16 546.62 178.18 546.67L178.18 546.67Q178.23 546.83 178.1 546.88L178.1 546.88M173.16 546.8L174.26 546.15Q174.26 546.08 174.26 546.02L174.26 546.02L174.26 543.24L171.84 544.18Q171.37 544.36 171.06 544.59Q170.75 544.83 170.6 545.11Q170.46 545.4 170.46 545.74L170.46 545.74Q170.46 546.34 170.85 546.78Q171.24 547.22 171.92 547.22L171.92 547.22Q172.18 547.22 172.46 547.14Q172.75 547.06 173.16 546.8L173.16 546.8M180.39 548L180.39 548Q180.31 548 180.31 547.84Q180.31 547.69 180.39 547.69L180.39 547.69Q181.41 547.69 181.72 547.34Q182.03 546.99 182.03 545.89L182.03 545.89L182.03 532.45Q182.03 531.54 181.85 531.11Q181.67 530.68 181.2 530.68L181.2 530.68Q180.81 530.68 180 531.05L180 531.05Q179.98 531.07 179.95 531.05L179.95 531.05Q179.87 531.05 179.85 530.94L179.85 530.94Q179.79 530.84 179.82 530.79L179.82 530.79Q179.85 530.76 179.87 530.76L179.87 530.76L183.12 529.18Q183.2 529.15 183.25 529.15L183.25 529.15Q183.33 529.15 183.41 529.22Q183.49 529.28 183.49 529.36L183.49 529.36L183.49 542.88L186.97 540.07Q187.98 539.26 187.79 538.77Q187.59 538.28 186.32 538.28L186.32 538.28Q186.24 538.28 186.24 538.12Q186.24 537.96 186.32 537.96L186.32 537.96Q186.94 537.96 187.58 537.99Q188.22 538.02 189.28 538.02L189.28 538.02Q190.27 538.02 190.86 537.99Q191.44 537.96 191.96 537.96L191.96 537.96Q192.04 537.96 192.04 538.12Q192.04 538.28 191.96 538.28L191.96 538.28Q191.36 538.28 190.64 538.47Q189.91 538.67 189.11 539.08Q188.32 539.5 187.49 540.15L187.49 540.15L185.98 541.34L189.28 545.89Q189.99 546.91 190.75 547.3Q191.52 547.69 192.27 547.69L192.27 547.69Q192.35 547.69 192.35 547.84Q192.35 548 192.27 548L192.27 548Q191.81 548 191.21 547.97Q190.61 547.95 189.91 547.95L189.91 547.95Q188.92 547.95 188.22 547.97Q187.52 548 186.92 548L186.92 548Q186.87 548 186.87 547.84Q186.87 547.69 186.92 547.69L186.92 547.69Q187.85 547.69 188.11 547.44Q188.37 547.19 187.98 546.62L187.98 546.62L184.79 542.28L183.49 543.29L183.49 545.89Q183.49 546.99 183.8 547.34Q184.11 547.69 185.12 547.69L185.12 547.69Q185.2 547.69 185.2 547.84Q185.2 548 185.12 548L185.12 548Q184.66 548 184.06 547.97Q183.46 547.95 182.76 547.95L182.76 547.95Q182.08 547.95 181.46 547.97Q180.83 548 180.39 548M199.27 548.31L199.27 548.31Q197.71 548.31 196.64 547.6Q195.58 546.88 195.04 545.74Q194.51 544.59 194.51 543.32L194.51 543.32Q194.51 541.73 195.24 540.47Q195.97 539.21 197.23 538.47Q198.49 537.73 200 537.73L200 537.73Q201.48 537.73 202.24 538.51Q203.01 539.29 203.01 540.69L203.01 540.69Q203.01 541.03 202.95 541.2Q202.88 541.37 202.7 541.37L202.7 541.37L201.63 541.37L196.28 541.4Q196.23 541.84 196.23 542.33L196.23 542.33Q196.23 543.81 196.69 544.96Q197.16 546.1 198.07 546.75Q198.98 547.4 200.28 547.4L200.28 547.4Q201.17 547.4 201.74 547.14Q202.31 546.88 202.88 546.54L202.88 546.54Q202.88 546.54 202.91 546.52L202.91 546.52Q202.96 546.52 203.04 546.6L203.04 546.6Q203.12 546.73 203.06 546.8L203.06 546.8Q202.15 547.61 201.21 547.96Q200.26 548.31 199.27 548.31M196.33 541.06L201.27 540.95Q201.27 539.68 200.78 539L200.78 539Q200.2 538.25 199.14 538.25L199.14 538.25Q197.76 538.25 197.01 539.34L197.01 539.34Q196.51 540.04 196.33 541.06L196.33 541.06M206.91 548L206.91 548Q206.83 548 206.83 547.84Q206.83 547.69 206.91 547.69L206.91 547.69Q207.93 547.69 208.23 547.34Q208.52 546.99 208.52 545.89L208.52 545.89L208.52 540.75Q208.52 539.89 208.33 539.49Q208.13 539.08 207.61 539.08L207.61 539.08Q207.35 539.08 207 539.19Q206.65 539.29 206.21 539.47L206.21 539.47Q206.11 539.5 206.04 539.37Q205.98 539.24 206.08 539.19L206.08 539.19L209.1 537.76Q209.17 537.73 209.25 537.73L209.25 537.73Q209.43 537.73 209.72 538.28Q210.01 538.82 210.01 539.86L210.01 539.86L210.01 539.89Q210.55 539.26 210.94 538.85L210.94 538.85Q211.57 538.22 212.02 537.98Q212.48 537.73 212.89 537.73L212.89 537.73Q213.44 537.73 213.97 538.04Q214.5 538.35 214.5 538.8L214.5 538.8Q214.5 539.13 214.28 539.37Q214.06 539.6 213.65 539.6L213.65 539.6Q213.31 539.6 213.07 539.39Q212.84 539.19 212.58 539Q212.32 538.82 211.9 538.82L211.9 538.82Q211.67 538.82 211.41 538.95Q211.15 539.08 210.71 539.52L210.71 539.52Q210.42 539.84 210.01 540.3L210.01 540.3L210.01 545.89Q210.01 546.62 210.19 547.03Q210.37 547.43 210.92 547.56Q211.46 547.69 212.53 547.69L212.53 547.69Q212.63 547.69 212.63 547.84Q212.63 548 212.53 548L212.53 548Q211.9 548 211.06 547.97Q210.21 547.95 209.28 547.95L209.28 547.95Q208.6 547.95 207.98 547.97Q207.35 548 206.91 548M227.17 546.88L224.49 548.16Q224.38 548.21 224.28 548.21L224.28 548.21Q223.94 548.21 223.63 547.64L223.63 547.64Q223.4 547.22 223.34 546.52L223.34 546.52L221.99 547.4Q221.37 547.82 220.86 548Q220.35 548.18 219.81 548.18L219.81 548.18Q218.82 548.18 218.3 547.65Q217.78 547.12 217.78 546.39L217.78 546.39Q217.78 545.87 218.05 545.44Q218.33 545.01 218.92 544.65Q219.52 544.28 220.46 543.94L220.46 543.94L223.32 542.88L223.32 541.11Q223.32 539.5 222.86 538.85Q222.41 538.2 221.68 538.2L221.68 538.2Q221.03 538.2 220.61 538.52Q220.2 538.85 220 539.29Q219.81 539.73 219.73 540.12L219.73 540.12Q219.65 540.49 219.47 540.84Q219.29 541.19 218.74 541.19L218.74 541.19Q218.3 541.19 218.09 540.94Q217.88 540.69 217.88 540.41L217.88 540.41Q217.88 539.91 218.36 539.45Q218.85 538.98 219.59 538.58Q220.33 538.17 221.15 537.94Q221.97 537.7 222.62 537.7L222.62 537.7Q223.68 537.7 224.23 538.39Q224.77 539.08 224.77 540.33L224.77 540.33L224.77 545.19Q224.77 546.1 225.01 546.52Q225.24 546.93 225.76 546.93L225.76 546.93Q226.23 546.93 227.06 546.6L227.06 546.6Q227.11 546.57 227.17 546.6L227.17 546.6Q227.22 546.62 227.24 546.67L227.24 546.67Q227.3 546.83 227.17 546.88L227.17 546.88M222.23 546.8L223.32 546.15Q223.32 546.08 223.32 546.02L223.32 546.02L223.32 543.24L220.9 544.18Q220.43 544.36 220.12 544.59Q219.81 544.83 219.67 545.11Q219.52 545.4 219.52 545.74L219.52 545.74Q219.52 546.34 219.91 546.78Q220.3 547.22 220.98 547.22L220.98 547.22Q221.24 547.22 221.52 547.14Q221.81 547.06 222.23 546.8L222.23 546.8M233.67 548.31L233.67 548.31Q233.04 548.31 232.47 548.12Q231.9 547.92 231.53 547.45Q231.17 546.99 231.17 546.18L231.17 546.18L231.17 540.07Q231.17 539.45 231.09 539.13Q231.01 538.82 230.73 538.73Q230.44 538.64 229.84 538.64L229.84 538.64Q229.74 538.64 229.74 538.47Q229.74 538.3 229.84 538.3L229.84 538.3Q230.88 538.28 231.55 537.73Q232.21 537.18 232.29 536.33L232.29 536.33Q232.29 536.25 232.48 536.25Q232.68 536.25 232.68 536.33L232.68 536.33L232.68 538.25Q233.48 538.22 234.24 538.17L234.24 538.17Q235.2 538.09 236.29 537.99L236.29 537.99Q236.34 537.99 236.41 538.17Q236.47 538.35 236.47 538.61L236.47 538.61Q236.47 538.8 236.38 539.03Q236.29 539.26 236.19 539.24L236.19 539.24Q235.17 538.98 234.24 538.9L234.24 538.9Q233.51 538.85 232.68 538.82L232.68 538.82L232.68 545.3Q232.68 546.36 233.21 546.88Q233.74 547.4 234.73 547.4L234.73 547.4Q235.41 547.4 235.94 547.18Q236.47 546.96 236.81 546.67L236.81 546.67Q236.92 546.62 237.02 546.73L237.02 546.73Q237.05 546.8 237.05 546.86L237.05 546.86Q237.05 546.91 236.99 546.93L236.99 546.93Q236.03 547.66 235.27 547.99Q234.5 548.31 233.67 548.31M240.17 548L240.17 548Q240.09 548 240.09 547.84Q240.09 547.69 240.17 547.69L240.17 547.69Q241.18 547.69 241.49 547.34Q241.8 546.99 241.8 545.89L241.8 545.89L241.8 532.45Q241.8 531.54 241.62 531.11Q241.44 530.68 240.97 530.68L240.97 530.68Q240.58 530.68 239.78 531.05L239.78 531.05Q239.75 531.05 239.75 531.05L239.75 531.05Q239.67 531.05 239.62 530.94L239.62 530.94Q239.57 530.84 239.59 530.79L239.59 530.79Q239.62 530.76 239.65 530.76L239.65 530.76L242.97 529.18Q243.03 529.15 243.1 529.15L243.1 529.15Q243.16 529.15 243.25 529.22Q243.34 529.28 243.34 529.36L243.34 529.36L243.34 545.89Q243.34 546.99 243.62 547.34Q243.91 547.69 244.95 547.69L244.95 547.69Q245.03 547.69 245.03 547.84Q245.03 548 244.95 548L244.95 548Q244.51 548 243.88 547.97Q243.26 547.95 242.56 547.95L242.56 547.95Q241.88 547.95 241.25 547.97Q240.61 548 240.17 548M249.97 548.29L249.97 548.29Q249.45 548.29 249.14 547.99Q248.82 547.69 248.82 547.17L248.82 547.17Q248.82 546.67 249.14 546.38Q249.45 546.08 249.97 546.08L249.97 546.08Q250.51 546.08 250.8 546.38Q251.09 546.67 251.09 547.17L251.09 547.17Q251.09 547.69 250.8 547.99Q250.51 548.29 249.97 548.29M260.08 548.31L260.08 548.31Q258.31 548.31 257.2 547.54Q256.08 546.78 255.55 545.6Q255.01 544.41 255.01 543.19L255.01 543.19Q255.01 541.89 255.52 540.88Q256.03 539.86 256.86 539.16Q257.69 538.46 258.7 538.09Q259.72 537.73 260.68 537.73L260.68 537.73Q261.43 537.73 262.12 537.92Q262.81 538.12 263.27 538.48Q263.72 538.85 263.72 539.32L263.72 539.32Q263.72 539.65 263.49 539.9Q263.25 540.15 262.81 540.15L262.81 540.15Q262.4 540.15 262.12 539.89Q261.85 539.63 261.67 539.29L261.67 539.29Q261.38 538.82 260.99 538.54Q260.6 538.25 259.82 538.25L259.82 538.25Q258.34 538.25 257.53 539.41Q256.73 540.56 256.73 542.41L256.73 542.41Q256.73 543.74 257.18 544.88Q257.64 546.02 258.6 546.71Q259.56 547.4 261.1 547.4L261.1 547.4Q261.8 547.4 262.47 547.22Q263.15 547.04 263.75 546.54L263.75 546.54Q263.75 546.54 263.77 546.52L263.77 546.52Q263.83 546.52 263.9 546.6L263.9 546.6Q263.98 546.7 263.93 546.75L263.93 546.75Q263.02 547.56 262.11 547.93Q261.2 548.31 260.08 548.31M272.17 548.34L272.17 548.34Q270.64 548.34 269.49 547.58Q268.35 546.83 267.73 545.57Q267.1 544.31 267.1 542.85L267.1 542.85Q267.1 541.5 267.6 540.51Q268.09 539.52 268.92 538.89Q269.75 538.25 270.73 537.94Q271.7 537.63 272.64 537.63L272.64 537.63Q274.23 537.63 275.36 538.41Q276.49 539.19 277.09 540.41Q277.68 541.63 277.68 542.98L277.68 542.98Q277.68 544.65 276.93 545.84Q276.18 547.04 274.93 547.69Q273.68 548.34 272.17 548.34M272.93 547.84L272.93 547.84Q274.3 547.84 275.11 546.87Q275.92 545.89 275.92 543.71L275.92 543.71Q275.92 542.07 275.38 540.81Q274.85 539.55 273.91 538.84Q272.98 538.12 271.78 538.12L271.78 538.12Q270.4 538.12 269.62 539.13Q268.84 540.15 268.84 542.05L268.84 542.05Q268.84 543.63 269.36 544.96Q269.88 546.28 270.81 547.06Q271.73 547.84 272.93 547.84M294.74 548L294.74 548Q294.66 548 294.66 547.84Q294.66 547.69 294.74 547.69L294.74 547.69Q295.75 547.69 296.07 547.34Q296.38 546.99 296.38 545.89L296.38 545.89L296.38 541.76Q296.38 538.72 294.14 538.72L294.14 538.72Q293.21 538.72 292.3 539.32L292.3 539.32Q291.65 539.76 291.1 540.38L291.1 540.38Q291.13 540.59 291.13 540.8L291.13 540.8L291.13 545.89Q291.13 546.99 291.43 547.34Q291.72 547.69 292.76 547.69L292.76 547.69Q292.84 547.69 292.84 547.84Q292.84 548 292.76 548L292.76 548Q292.3 548 291.69 547.97Q291.07 547.95 290.4 547.95Q289.72 547.95 289.1 547.97Q288.47 548 288.03 548L288.03 548Q287.95 548 287.95 547.84Q287.95 547.69 288.03 547.69L288.03 547.69Q289.05 547.69 289.35 547.34Q289.64 546.99 289.64 545.89L289.64 545.89L289.64 541.76Q289.64 538.72 287.43 538.72L287.43 538.72Q286.5 538.72 285.59 539.32L285.59 539.32Q284.96 539.73 284.44 540.33L284.44 540.33L284.44 545.89Q284.44 546.99 284.74 547.34Q285.04 547.69 286.06 547.69L286.06 547.69Q286.13 547.69 286.13 547.84Q286.13 548 286.06 548L286.06 548Q285.61 548 285 547.97Q284.39 547.95 283.72 547.95Q283.04 547.95 282.42 547.97Q281.79 548 281.35 548L281.35 548Q281.27 548 281.27 547.84Q281.27 547.69 281.35 547.69L281.35 547.69Q282.36 547.69 282.66 547.34Q282.96 546.99 282.96 545.89L282.96 545.89L282.96 540.75Q282.96 539.89 282.77 539.49Q282.57 539.08 282.05 539.08L282.05 539.08Q281.79 539.08 281.44 539.19Q281.09 539.29 280.65 539.47L280.65 539.47Q280.54 539.5 280.48 539.37Q280.41 539.24 280.52 539.19L280.52 539.19L283.53 537.76Q283.61 537.73 283.69 537.73L283.69 537.73Q283.87 537.73 284.16 538.28Q284.44 538.82 284.44 539.86L284.44 539.86L284.44 539.89Q285.22 538.93 286.03 538.41L286.03 538.41Q287.12 537.7 288.27 537.7L288.27 537.7Q289.62 537.7 290.37 538.46L290.37 538.46Q290.92 539 291.07 539.99L291.07 539.99Q291.93 538.95 292.76 538.41L292.76 538.41Q293.86 537.7 295 537.7L295 537.7Q296.35 537.7 297.09 538.47Q297.83 539.24 297.83 540.85L297.83 540.85L297.83 545.89Q297.83 546.99 298.13 547.34Q298.43 547.69 299.47 547.69L299.47 547.69Q299.55 547.69 299.55 547.84Q299.55 548 299.47 548L299.47 548Q299.03 548 298.41 547.97Q297.78 547.95 297.11 547.95Q296.43 547.95 295.82 547.97Q295.21 548 294.74 548" fill="#7d8494"/>
</svg>